<?xml version="1.0" standalone="no"?>
<!DOCTYPE svg PUBLIC "-//W3C//DTD SVG 1.1//EN" "http://www.w3.org/Graphics/SVG/1.1/DTD/svg11.dtd" >
<svg xmlns="http://www.w3.org/2000/svg">
<metadata>
This is a custom SVG font generated by IcoMoon.
<iconset grid="16"></iconset>
</metadata>
<defs>
<font id="projetE" horiz-adv-x="512" >
<font-face units-per-em="512" ascent="480" descent="-32" />
<missing-glyph horiz-adv-x="512" />
<glyph unicode="&#xe000;" d="M 207.962,308.724L 127.482,448.672C 59.344,405.787, 16.471,331.264, 13.637,250.729l 160.891,0.00 
		C 176.953,273.851, 189.193,295.005, 207.962,308.724zM 215.037,242.185c0.00-14.673, 7.879-28.365, 20.588-35.72c 12.541-7.291, 28.446-7.316, 41.05-0.027
		c 12.68,7.397, 20.588,21.097, 20.588,35.747s-7.909,28.35-20.631,35.774c-6.261,3.596-13.354,5.524-20.483,5.524
		c-7.255,0.00-14.158-1.867-20.534-5.572C 222.925,270.535, 215.037,256.837, 215.037,242.185zM 337.712,250.729l 160.891,0.00 c-2.834,80.55-45.713,155.091-113.845,197.957l-80.504-139.93
		C 323.045,295.035, 335.258,273.851, 337.712,250.729zM 222.777,167.054l-80.504-139.99c 69.906-37.322, 157.759-37.322, 227.683,0.00L 289.461,167.038
		C 268.574,157.66, 243.842,157.633, 222.777,167.054z"  />
<glyph unicode="&#xe001;" d="M 485.593,47.339L 270.484,417.265c-2.991,5.054-8.502,8.201-14.363,8.201c-5.885,0.00-11.403-3.171-14.408-8.279
		l-215.076-369.848c-2.985-5.123-2.994-11.514-0.03-16.685c 2.967-5.147, 8.502-8.346, 14.438-8.346l 430.164,0.006
		c 5.933,0.00, 11.451,3.192, 14.396,8.322C 488.596,35.792, 488.587,42.195, 485.593,47.339z M 462.598,43.902l-412.97-0.006l 206.493,355.102
		L 462.598,43.902zM 233.059,166.587c 0.69,6.536, 4.141,12.517, 9.46,16.405c 2.039,1.485, 2.623,4.262, 1.367,6.448l-27.594,47.968
		c-0.672,1.163-1.783,2.00-3.084,2.334c-1.301,0.322-2.683,0.099-3.822-0.62c-24.841-15.637-40.294-42.496-41.333-71.855
		c-0.045-1.34, 0.458-2.638, 1.385-3.596c 0.928-0.967, 2.208-1.509, 3.548-1.509l 55.151,0.00 C 230.674,162.162, 232.788,164.078, 233.059,166.587zM 246.597,180.691c-5.861-3.409-9.502-9.749-9.502-16.52c0.00-6.786, 3.641-13.113, 9.517-16.523
		c 2.87-1.666, 6.159-2.545, 9.517-2.545c 3.355,0.00, 6.644,0.879, 9.517,2.545c 5.864,3.409, 9.517,9.749, 9.517,16.523
		c0.00,6.767-3.641,13.095-9.544,16.547C 259.75,184.082, 252.449,184.076, 246.597,180.691zM 279.17,166.587c 0.271-2.509, 2.382-4.424, 4.909-4.424l 55.154,0.00 c 1.34,0.00, 2.62,0.539, 3.551,1.509
		s 1.431,2.265, 1.373,3.596c-1.036,29.359-16.48,56.224-41.333,71.861c-1.135,0.72-2.509,0.934-3.819,0.62
		c-1.301-0.325-2.415-1.163-3.087-2.334l-27.594-47.965c-1.253-2.181-0.669-4.963, 1.367-6.448
		C 275.028,179.119, 278.48,173.137, 279.17,166.587zM 271.827,140.878c-1.268,2.199-3.985,3.099-6.304,2.042c-5.774-2.596-12.999-2.602-18.818,0.006
		c-2.313,1.021-5.033,0.145-6.298-2.045l-27.594-47.989c-0.669-1.157-0.834-2.533-0.467-3.819c 0.37-1.292, 1.247-2.364, 2.427-2.991
		c 12.469-6.656, 26.766-10.177, 41.342-10.177s 28.874,3.521, 41.342,10.177c 1.181,0.626, 2.057,1.711, 2.415,2.991
		c 0.37,1.28, 0.205,2.662-0.464,3.819L 271.827,140.878z"  />
<glyph unicode="&#xe002;" d="M 483.235,43.339l-216.913,373.022c-2.129,3.593-6.039,5.831-10.198,5.831c-4.18,0.00-8.093-2.244-10.225-5.879
		l-216.898-372.989c-2.12-3.635-2.126-8.168-0.021-11.842c 2.105-3.656, 6.033-5.924, 10.246-5.924l 433.812,0.006
		c 4.207,0.00, 8.123,2.268, 10.219,5.906C 485.364,35.15, 485.358,39.692, 483.235,43.339z M 39.222,37.388l 216.895,372.992l 216.889-372.986
		L 39.222,37.388zM 239.468,186.672l-27.829,48.378c-23.555-14.824-38.376-40.593-39.358-68.427l 55.621,0.00 
		C 228.747,174.616, 232.975,181.932, 239.468,186.672zM 241.914,163.674c0.00-5.075, 2.723-9.809, 7.114-12.351c 4.343-2.518, 9.836-2.521, 14.185-0.003
		c 4.388,2.557, 7.117,7.291, 7.117,12.354c0.00,5.072-2.738,9.806-7.132,12.369c-2.168,1.241-4.617,1.915-7.084,1.915
		c-2.512,0.00-4.894-0.645-7.096-1.925C 244.64,173.469, 241.914,168.734, 241.914,163.674zM 284.317,166.626l 55.624,0.00 c-0.982,27.841-15.806,53.612-39.358,68.433l-27.829-48.375
		C 279.257,181.941, 283.473,174.616, 284.317,166.626zM 244.588,137.701l-27.829-48.396c 24.169-12.899, 54.531-12.902, 78.703,0.00l-27.829,48.393
		C 260.418,134.448, 251.868,134.436, 244.588,137.701z"  />
<glyph unicode="&#xe003;" d="M 268.646,191.44L 302.851,278.097L 166.277,209.896L 222.157,168.309 	zM 337.275,474.618L 334.255,476.66L 205.628,413.202L 169.418,226.114L 261.093,271.896 	zM 320.407,286.865L 196.753-26.386L 199.957-28.774L 376.748,245.239 	z"  />
<glyph unicode="&#xe004;" d="M 211.914,70.484l-2.759,2.048l 106.225,269.095l 48.396-35.759L 211.914,70.484z M 300.312,334.095l-29.389-74.445
		l-39.936-19.875L 182.974,275.504L 300.312,334.095z M 317.151,469.046L 264.433,328.77L 185.669,289.437L 221.166,473.477
		c-118.676-17.812-209.676-120.172-209.676-243.805c0.00-136.162, 110.387-246.561, 246.564-246.561s 246.561,110.402, 246.561,246.561
		C 504.612,345.47, 424.773,442.57, 317.151,469.046"  />
<glyph unicode="&#xe005;" d="M 454.412,391.861l-84.748,85.281c-1.178,1.181-2.783,1.855-4.457,1.855L 62.28,478.991 
		c-3.467,0.00-6.28-2.813-6.28-6.28l0.00-497.661 c0.00-3.47, 2.813-6.28, 6.28-6.28l 387.674,0.00 c 3.47,0.00, 6.28,2.81, 6.28,6.28L 456.234,387.433 
		C 456.234,389.09, 455.584,390.686, 454.412,391.861z M 376.35,450.524l 52.375-52.375l-52.375,0.00 L 376.35,450.524 z M 443.675-18.661L 68.56-18.661 L 68.56,466.432 
		l 294.039,0.00 l 1.196-1.202l0.00-73.364 c0.00-3.467, 2.81-6.28, 6.28-6.28L 442.937,385.587 l 0.738-0.741L 443.675-18.661 zM 379.518,313.296c-0.148,0.00-0.247-0.105-0.364-0.154c-0.126,0.048-0.226,0.154-0.364,0.154L 132.716,313.296 
		c-0.69,0.00-1.25-0.56-1.25-1.25c0.00-0.003, 0.003-0.003, 0.003-0.006l-0.003-276.567c0.00-0.69, 0.56-1.253, 1.25-1.253l 246.076,0.00 
		c 0.539,0.00, 0.919,0.386, 1.093,0.87c 0.491,0.172, 0.894,0.557, 0.894,1.102L 380.771,312.046 C 380.771,312.736, 380.211,313.296, 379.518,313.296z
		 M 193.175,36.722L 133.969,36.722 l0.00,25.151 l 59.205,0.00 L 193.175,36.722 z M 193.175,64.373L 133.969,64.373 l0.00,25.16 l 59.205,0.00 L 193.175,64.373 z M 193.175,92.037L 133.969,92.037 l0.00,25.154 
		l 59.205,0.00 L 193.175,92.037 z M 193.175,119.694L 133.969,119.694 l0.00,25.154 l 59.205,0.00 L 193.175,119.694 z M 193.175,147.348L 133.969,147.348 l0.00,25.151 l 59.205,0.00 L 193.175,147.348 z M 193.175,175.002
		L 133.969,175.002 l0.00,25.154 l 59.205,0.00 L 193.175,175.002 z M 193.175,202.659L 133.969,202.659 l0.00,25.157 l 59.205,0.00 L 193.175,202.659 z M 193.175,230.322L 133.969,230.322 l0.00,25.157 l 59.205,0.00 L 193.175,230.322 z
		 M 193.175,257.976L 133.969,257.976 l0.00,25.16 l 59.205,0.00 L 193.175,257.976 z M 193.175,285.639L 133.969,285.639 l0.00,25.157 l 59.205,0.00 L 193.175,285.639 z M 254.868,36.722L 195.674,36.722 l0.00,25.151 l 59.19,0.00 
		L 254.865,36.722 z M 254.868,64.373L 195.674,64.373 l0.00,25.16 l 59.19,0.00 L 254.865,64.373 z M 254.868,92.037L 195.674,92.037 l0.00,25.154 l 59.19,0.00 L 254.865,92.037 z M 254.868,119.694L 195.674,119.694 
		l0.00,25.154 l 59.19,0.00 L 254.865,119.694 z M 254.868,147.348L 195.674,147.348 l0.00,25.151 l 59.19,0.00 L 254.865,147.348 z M 254.868,175.002L 195.674,175.002 l0.00,25.154 l 59.19,0.00 L 254.865,175.002 z
		 M 254.868,202.659L 195.674,202.659 l0.00,25.157 l 59.19,0.00 L 254.865,202.659 z M 254.868,230.322L 195.674,230.322 l0.00,25.157 l 59.19,0.00 L 254.865,230.322 z M 254.868,257.976L 195.674,257.976 l0.00,25.16 l 59.19,0.00 
		L 254.865,257.976 z M 254.868,285.639L 195.674,285.639 l0.00,25.157 l 59.19,0.00 L 254.865,285.639 z M 316.561,36.722L 257.367,36.722 l0.00,25.151 l 59.205,0.00 L 316.573,36.722 z M 316.561,64.373L 257.367,64.373 
		l0.00,25.16 l 59.205,0.00 L 316.573,64.373 z M 316.561,92.037L 257.367,92.037 l0.00,25.154 l 59.205,0.00 L 316.573,92.037 z M 316.561,119.694L 257.367,119.694 l0.00,25.154 l 59.205,0.00 L 316.573,119.694 z
		 M 316.561,147.348L 257.367,147.348 l0.00,25.151 l 59.205,0.00 L 316.573,147.348 z M 316.561,175.002L 257.367,175.002 l0.00,25.154 l 59.205,0.00 L 316.573,175.002 z M 316.561,202.659L 257.367,202.659 l0.00,25.157 l 59.205,0.00 
		L 316.573,202.659 z M 316.561,230.322L 257.367,230.322 l0.00,25.157 l 59.205,0.00 L 316.573,230.322 z M 316.561,257.976L 257.367,257.976 l0.00,25.16 l 59.205,0.00 L 316.573,257.976 z M 316.561,285.639L 257.367,285.639 l0.00,25.157 
		l 59.205,0.00 L 316.573,285.639 z M 378.269,36.722L 319.075,36.722 l0.00,25.151 l 59.193,0.00 L 378.269,36.722 z M 378.269,64.373L 319.075,64.373 l0.00,25.16 l 59.193,0.00 L 378.269,64.373 z M 378.269,92.037
		L 319.075,92.037 l0.00,25.154 l 59.193,0.00 L 378.269,92.037 z M 378.269,119.694L 319.075,119.694 l0.00,25.154 l 59.193,0.00 L 378.269,119.694 z M 378.269,147.348L 319.075,147.348 l0.00,25.151 l 59.193,0.00 L 378.269,147.348 z
		 M 378.269,175.002L 319.075,175.002 l0.00,25.154 l 59.193,0.00 L 378.269,175.002 z M 378.269,202.659L 319.075,202.659 l0.00,25.157 l 59.193,0.00 L 378.269,202.659 z M 378.269,230.322L 319.075,230.322 l0.00,25.157 l 59.193,0.00 
		L 378.269,230.322 z M 378.269,257.976L 319.075,257.976 l0.00,25.16 l 59.193,0.00 L 378.269,257.976 z M 378.269,285.639L 319.075,285.639 l0.00,25.157 l 59.193,0.00 L 378.269,285.639 z"  />
<glyph unicode="&#xe006;" d="M 208.70,74.523l-13.366,0.00 l0.00-48.339 l 9.951,0.00 l0.00,11.02 l 3.415,0.00 c 13.438,0.00, 21.609,6.96, 21.609,18.619
		S 222.211,74.523, 208.70,74.523z M 208.417,45.95L 205.291,45.95 l0.00,19.826 l 3.132,0.00 c 7.96,0.00, 11.659-3.268, 11.659-9.954
		C 220.076,49.209, 216.525,45.95, 208.417,45.95zM 254.202,74.523l-14.866,0.00 l0.00-48.339 l 14.866,0.00 c 14.926,0.00, 25.452,9.879, 25.452,24.178S 269.053,74.523, 254.202,74.523z
		 M 253.699,34.93l-4.406,0.00 l0.00,30.846 l 4.406,0.00 c 10.734,0.00, 15.64-6.397, 15.64-15.432C 269.336,41.333, 264.436,34.93, 253.699,34.93zM 289.608,26.184L 299.556,26.184L 299.556,40.903L 318.822,40.903L 318.822,49.781L 299.556,49.781L 299.556,65.777L 320.741,65.777L 320.741,74.523L 289.608,74.523 	zM 454.415,391.861l-84.751,85.281c-1.175,1.181-2.786,1.855-4.457,1.855L 62.283,478.991 
		c-3.47,0.00-6.28-2.81-6.28-6.28l0.00-497.655 c0.00-3.47, 2.81-6.283, 6.28-6.283l 387.677,0.00 c 3.47,0.00, 6.277,2.813, 6.277,6.283l0.00,412.386 
		C 456.237,389.102, 455.581,390.686, 454.415,391.861z M 376.35,450.533l 52.378-52.375l-52.378,0.00 L 376.35,450.533 z M 443.675-18.664L 68.563-18.664 L 68.563,466.438 
		l 294.036,0.00 l 1.196-1.199l0.00-73.364 c0.00-3.47, 2.813-6.28, 6.283-6.28l 72.879,0.00 l 0.738-0.744l0.00-403.51 L 443.675-18.664 z"  />
<glyph unicode="&#xe007;" d="M 454.415,391.861l-84.751,85.281c-1.175,1.181-2.786,1.855-4.457,1.855L 62.283,478.991 
		c-3.47,0.00-6.28-2.81-6.28-6.28l0.00-497.655 c0.00-3.47, 2.81-6.283, 6.28-6.283l 387.677,0.00 c 3.47,0.00, 6.277,2.813, 6.277,6.283l0.00,412.386 
		C 456.237,389.102, 455.581,390.686, 454.415,391.861z M 376.35,450.533l 52.378-52.375l-52.378,0.00 L 376.35,450.533 z M 443.675-18.664L 68.563-18.664 L 68.563,466.438 
		l 294.036,0.00 l 1.196-1.199l0.00-73.364 c0.00-3.47, 2.813-6.28, 6.283-6.28l 72.879,0.00 l 0.738-0.744l0.00-403.51 L 443.675-18.664 z"  />
<glyph unicode="&#xe008;" d="M 438.627,292.102l-4.948-64.548l-66.184,0.00 l0.00-224.316 L 283.841,3.232 L 283.841,227.545 l-44.622,0.00 L 239.218,292.102 l 44.622,0.00 l0.00,20.233 l0.00,19.857 l0.00,3.244 
		c0.00,19.101, 0.455,48.622, 14.381,66.897c 14.613,19.33, 34.693,32.467, 69.274,32.467c 56.299,0.00, 79.992-7.927, 79.992-7.927l-11.213-66.214
		c0.00,0.00-18.54,5.433-35.942,5.433c-17.33,0.00-32.849-6.189-32.849-23.636l0.00-7.02 l0.00-23.10 l0.00-20.233 L 438.627,292.102 z M 452.852,461.905l-393.547,0.00 
		c-22.805,0.00-41.261-18.423-41.261-41.30l0.00-393.37 c0.00-22.956, 18.456-41.379, 41.261-41.379l 393.547,0.00 c 22.805,0.00, 41.333,18.423, 41.333,41.379L 494.194,420.605 
		C 494.182,443.479, 475.657,461.905, 452.852,461.905"  />
<glyph unicode="&#xe00a;" d="M 501.585-23.63L 501.585,475.362 L 2.593,475.362 l0.00-498.998 L 501.585-23.633 z M 377.311,120.031c-9.282-9.602-24.579-9.851-34.184-0.572
	L 255.28,204.457l-87.868-84.998c-9.586-9.282-24.898-9.035-34.187,0.572c-9.282,9.602-9.032,24.904, 0.572,34.187l 104.686,101.25
	c 4.689,4.536, 10.752,6.807, 16.815,6.807s 12.125-2.271, 16.815-6.807l 104.659-101.25C 386.34,144.932, 386.593,129.632, 377.311,120.031z
	 M 144.279,339.08l 214.944,0.00 c 13.351,0.00, 24.178-10.827, 24.178-24.178s-10.827-24.178-24.178-24.178L 144.279,290.711 c-13.351,0.00-24.178,10.827-24.178,24.178
	S 130.927,339.08, 144.279,339.08z"  />
<glyph unicode="&#xe00b;" d="M 2.593-23.63l 498.995,0.00 L 501.588,475.362 L 2.593,475.362 L 2.593-23.63 z M 146.254,100.659c-9.602,9.282-9.854,24.579-0.569,34.184
	l 84.983,87.844L 145.682,310.546c-9.279,9.586-9.035,24.898, 0.572,34.187c 9.602,9.282, 24.904,9.032, 34.187-0.572l 101.25-104.686
	c 4.536-4.689, 6.807-10.752, 6.807-16.815s-2.271-12.125-6.807-16.815l-101.25-104.659C 171.156,91.627, 155.856,91.362, 146.254,100.659z
	 M 365.291,333.676l0.00-214.944 c0.00-13.351-10.827-24.178-24.178-24.178s-24.178,10.827-24.178,24.178L 316.934,333.676 c0.00,13.351, 10.827,24.178, 24.178,24.178
	S 365.291,347.028, 365.291,333.676z"  />
<glyph unicode="&#xe00c;" d="M 2.593,475.362l0.00-498.995 l 498.995,0.00 L 501.588,475.362 L 2.593,475.362 z M 126.868,331.701c 9.282,9.602, 24.582,9.854, 34.187,0.569l 87.844-84.983
	L 336.77,332.273c 9.586,9.279, 24.898,9.035, 34.187-0.572c 9.282-9.602, 9.032-24.904-0.572-34.187L 265.713,196.268
	c-4.689-4.536-10.752-6.807-16.815-6.807s-12.125,2.271-16.815,6.807l-104.659,101.25C 117.835,306.799, 117.585,322.102, 126.868,331.701z
	 M 359.90,112.664L 144.956,112.664 c-13.351,0.00-24.178,10.827-24.178,24.178s 10.827,24.178, 24.178,24.178l 214.944,0.00 c 13.351,0.00, 24.178-10.827, 24.178-24.178
	S 373.251,112.664, 359.90,112.664z"  />
<glyph unicode="&#xe00d;" d="M 488.096,396.327L 430.848,454.141L 256.12,281.13L 81.39,454.141L 24.142,396.327L 198.304,223.88L 24.142,51.435L 81.39-6.376L 256.12,166.632L 430.848-6.376L 488.096,51.435L 313.934,223.88 z"  />
<glyph unicode="&#xe00e;" d="M 477.497,413.973L 448.389,443.374L 256.12,252.994L 63.849,443.374L 34.738,413.973L 226.72,223.88L 34.738,33.789L 63.849,4.391L 256.12,194.768L 448.389,4.391L 477.497,33.789L 285.518,223.88 z"  />
<glyph unicode="&#xe00f;" d="M 472.203,423.15L 457.511,437.983L 256.12,238.574L 54.727,437.983L 40.035,423.15L 241.288,223.88L 40.035,24.618L 54.727,9.782L 256.12,209.194L 457.511,9.782L 472.203,24.618L 270.956,223.88 z"  />
<glyph unicode="&#xe010;" d="M 469.022,428.782L 463.119,434.748L 256.12,229.795L 49.128,434.748L 43.216,428.782L 250.154,223.88L 43.216,18.983L 49.128,13.014L 256.12,217.967L 463.119,13.014L 469.022,18.983L 262.084,223.88 z"  />
<glyph unicode="&#xe011;" d="M 467.962,430.682L 465.001,433.673L 256.12,226.843L 47.237,433.673L 44.276,430.682L 253.13,223.88L 44.276,17.083L 47.237,14.092L 256.12,220.919L 465.001,14.092L 467.962,17.083L 259.108,223.88 z"  />
<glyph unicode="&#xe012;" d="M 467.435,431.631L 465.953,433.131L 256.12,225.361L 46.285,433.131L 44.803,431.631L 254.621,223.88L 44.803,16.131L 46.285,14.634L 256.12,222.401L 465.953,14.634L 467.435,16.131L 257.617,223.88 z"  />
<glyph unicode="&#xe013;" d="M 256.117,454.258c-127.027,0.00-230.376-103.346-230.376-230.376c0.00-127.03, 103.346-230.376, 230.376-230.376
		c 127.03,0.00, 230.376,103.346, 230.376,230.376C 486.493,350.913, 383.148,454.258, 256.117,454.258z M 256.117,20.597
		c-112.086,0.00-203.282,91.19-203.282,203.288c0.00,112.086, 91.19,203.282, 203.282,203.282c 112.095,0.00, 203.288-91.19, 203.288-203.282
		C 459.403,111.788, 368.212,20.597, 256.117,20.597z"  />
<glyph unicode="&#xe014;" d="M 362.044,139.412L 362.044,182.305 l 43.77,18.384l0.00-42.46 L 362.044,139.412z M 318.702,211.191l 38.514,16.197l 36.331-15.321
		l-39.391-16.194L 318.702,211.191z M 346.287,139.412l0.00-0.437 l-112.483,46.393L 233.797,230.011 l 112.483-45.957l0.00-1.747 l 0.434,0.00 l0.00-43.333 L 346.287,139.412z
		 M 367.73,239.643L 367.73,300.478 L 217.606,362.632l-66.524-29.323l0.00-69.15 l 0.437-0.44l-58.651-24.51l0.00-63.024 l 62.594-27.133l 63.461,26.257l 4.379-1.747
		l 128.244-52.962l 3.06-0.876l 2.626,0.876l 59.531,25.386l 4.379,2.187L 421.129,217.32 l-4.822,2.187L 367.73,239.643z M 398.369,365.685
		c 39.096-38.511, 58.651-85.781, 58.651-141.803c0.00-56.32-19.263-103.147-57.778-140.496c-40.559-39.981-88.121-59.97-142.679-59.97
		c-54.859,0.00-102.132,19.845-141.812,59.528c-39.686,39.391-59.528,86.371-59.528,140.936c0.00,53.977, 19.98,101.25, 59.961,141.803
		c 38.511,39.391, 85.634,59.091, 141.372,59.091C 312.287,424.776, 359.554,405.082, 398.369,365.685 M 83.239,397.64
		C 35.09,348.624, 11.014,290.699, 11.014,223.883c0.00-67.114, 24.073-124.738, 72.216-172.881c 48.727-48.146, 106.207-72.216, 172.448-72.216
		c 67.692,0.00, 126.199,24.215, 175.514,72.65c 46.676,46.396, 70.03,103.879, 70.03,172.454c0.00,68.563-23.784,126.491-71.346,173.758
		c-47.556,47.556-105.632,71.343-174.197,71.343C 188.274,468.983, 130.792,445.196, 83.239,397.64"  />
<glyph unicode="&#xe015;" d="M 127.877,258.464L 176.459,209.881l 48.583,48.583l-17.944,0.00 c 4.078,28.88, 22.468,43.33, 55.145,43.33
		c 18.086,0.00, 31.955-6.786, 41.574-20.347c 9.632-13.571, 14.453-33.343, 14.453-59.314c0.00-24.802-5.253-44.64-15.758-59.518
		c-10.511-14.881-24.368-22.326-41.577-22.326c-34.437,0.00-52.381,14.884-53.832,44.652L 145.387,184.934 c 4.078-30.639, 16.194-54.272, 36.325-70.906
		c 20.131-16.634, 44.053-24.949, 71.782-24.949c 37.644,0.00, 68.28,12.475, 91.916,37.424c 23.63,24.946, 35.451,56.236, 35.451,93.88
		c0.00,38.804-11.378,70.611-34.144,95.416c-22.754,24.799-53.39,37.204-91.913,37.204c-28.012,0.00-51.796-8.252-71.343-24.73
		c-19.555-16.489-31.666-39.761-36.328-69.807L 127.877,258.467 z M 398.369,365.685c 39.096-38.511, 58.651-85.781, 58.651-141.803
		c0.00-56.32-19.263-103.147-57.778-140.496c-40.559-39.981-88.121-59.97-142.679-59.97c-54.859,0.00-102.132,19.845-141.812,59.528
		c-39.686,39.391-59.528,86.371-59.528,140.936c0.00,53.977, 19.98,101.25, 59.961,141.803c 38.511,39.391, 85.634,59.091, 141.372,59.091
		C 312.287,424.776, 359.554,405.082, 398.369,365.685 M 83.239,397.64C 35.09,348.624, 11.017,290.699, 11.017,223.883
		c0.00-67.114, 24.073-124.738, 72.216-172.881c 48.727-48.146, 106.207-72.216, 172.448-72.216c 67.692,0.00, 126.199,24.215, 175.514,72.65
		c 46.685,46.396, 70.03,103.879, 70.03,172.454c0.00,68.563-23.784,126.491-71.346,173.758c-47.556,47.556-105.632,71.343-174.197,71.343
		C 188.274,468.983, 130.792,445.196, 83.239,397.64"  />
<glyph unicode="&#xe016;" d="M 343.212,113.586L 235.99,113.586 L 235.99,267.213 l 107.231,0.00 L 343.221,113.586 z M 169.026,333.74l 107.231,0.00 l0.00-39.831 L 222.856,293.909 l-1.756,0.00 
		c-3.214-0.587-5.981-2.114-8.312-4.59c-2.337-2.482-3.503-5.472-3.503-8.972L 209.285,180.113 L 169.026,180.113 L 169.026,333.74 z M 302.95,293.909L 302.95,347.311 
		c0.00,3.792-1.316,7.005-3.93,9.629c-2.626,2.623-5.84,3.939-9.632,3.939L 155.889,360.873 l-1.316,0.00 c-3.50-0.587-6.421-2.114-8.752-4.59
		c-2.334-2.482-3.503-5.469-3.503-8.972l0.00-180.323 c0.00-3.798, 1.316-7.005, 3.942-9.632c 2.623-2.626, 5.834-3.939, 9.629-3.939l 53.402,0.00 l0.00-53.402 
		c0.00-3.792, 1.316-7.005, 3.939-9.626c 2.626-2.626, 5.834-3.942, 9.632-3.942l 133.49,0.00 c 3.783,0.00, 7.002,1.316, 9.629,3.942
		c 2.626,2.62, 3.939,5.834, 3.939,9.626l0.00,180.326 c0.00,3.783-1.307,7.002-3.939,9.629s-5.84,3.939-9.629,3.939L 302.95,293.909 z M 398.369,365.685
		c 39.096-38.511, 58.651-85.781, 58.651-141.803c0.00-56.32-19.257-103.147-57.775-140.496c-40.559-39.981-88.118-59.97-142.679-59.97
		c-54.859,0.00-102.132,19.845-141.812,59.528c-39.686,39.391-59.528,86.371-59.528,140.936c0.00,53.977, 19.98,101.25, 59.961,141.803
		c 38.511,39.391, 85.634,59.091, 141.372,59.091C 312.29,424.773, 359.557,405.082, 398.369,365.685 M 83.236,397.64
		C 35.09,348.621, 11.014,290.696, 11.014,223.883c0.00-67.114, 24.073-124.738, 72.216-172.881c 48.727-48.146, 106.207-72.216, 172.448-72.216
		c 67.692,0.00, 126.199,24.215, 175.514,72.65c 46.685,46.396, 70.03,103.879, 70.03,172.454c0.00,68.563-23.784,126.491-71.346,173.758
		c-47.559,47.556-105.635,71.343-174.197,71.343C 188.274,468.983, 130.792,445.196, 83.236,397.64"  />
<glyph unicode="&#xe017;" d="M 320.461,264.587c 12.252,0.00, 21.073-3.578, 26.476-10.719c 5.394-7.156, 8.093-16.715, 8.093-28.675
		c0.00-11.963-2.702-21.522-8.093-28.669c-5.409-7.156-14.077-10.728-26.037-10.728L 301.201,185.796 L 301.201,264.587 L 320.461,264.587 z M 320.018,157.359
		c 21.591,0.00, 38.514,5.539, 50.769,16.634c 12.255,11.08, 18.381,28.157, 18.381,51.203s-6.123,40.12-18.381,51.206s-29.184,16.637-50.769,16.637
		L 267.496,293.033 l0.00-135.683 L 320.018,157.356 z M 175.152,157.359L 175.152,201.129 l 26.696,0.00 c 10.791,0.00, 20.131,1.527, 28.012,4.587c 7.876,3.069, 13.791,7.005, 17.727,11.818
		c 3.939,4.813, 6.71,9.629, 8.312,14.441c 1.599,4.813, 2.406,9.848, 2.406,15.101c0.00,30.636-16.634,45.957-49.899,45.957L 141.011,293.033 l0.00-135.683 
		L 175.152,157.356 z M 202.725,267.653c 14.586,0.00, 21.883-6.864, 21.883-20.567c0.00-5.84-1.747-10.728-5.25-14.661c-3.503-3.942-8.752-5.909-15.758-5.909
		l-28.889,0.00 L 174.712,267.653 L 202.725,267.653 z M 398.369,366.122c 39.096-38.807, 58.651-86.224, 58.651-142.24c0.00-56.32-19.257-103.147-57.775-140.499
		c-40.267-39.978-87.823-59.958-142.679-59.958c-54.859,0.00-102.132,19.835-141.812,59.528c-39.686,39.68-59.528,86.661-59.528,140.933
		s 19.98,101.689, 59.961,142.24c 38.511,39.102, 85.564,58.651, 141.152,58.651C 311.922,424.773, 359.261,405.23, 398.369,366.122 M 83.239,398.08
		C 35.09,349.061, 11.017,290.994, 11.017,223.883c0.00-67.117, 24.142-124.738, 72.436-172.89c 48.288-48.143, 105.698-72.213, 172.228-72.213
		c 67.692,0.00, 126.199,24.362, 175.514,73.093c 46.685,46.104, 70.03,103.433, 70.03,172.011c0.00,68.563-23.709,126.554-71.126,173.975
		c-47.426,47.411-105.562,71.126-174.417,71.126C 187.985,468.986, 130.506,445.353, 83.239,398.08"  />
<glyph unicode="&#xe018;" d="M 398.369,366.122c 39.096-38.511, 58.651-85.935, 58.651-142.24c0.00-17.80-2.042-35.313-6.129-52.522l-125.612,56.025
		l-39.391,17.507l-21.444,9.629l-31.078,14.002c-1.455,2.039-2.187,4.078-2.187,6.129c0.00,7.005, 2.991,11.96, 8.972,14.881
		c 5.978,2.912, 12.764,4.379, 20.35,4.379c 14.294,0.00, 28.302-4.81, 42.017-14.438l 31.943,32.822c-18.378,14.005-38.807,21.591-61.271,22.763l0.00,37.644 L 244.742,372.703 
		l0.00-37.644 c-15.173-0.879-28.452-5.18-39.831-12.911c-11.378-7.737-19.116-18.019-23.203-30.859L 88.052,333.30c 8.457,12.255, 17.504,23.203, 27.136,32.822
		c 38.514,39.391, 85.634,59.094, 141.372,59.094C 312.29,425.216, 359.557,405.513, 398.369,366.122 M 191.343,233.948l 38.951-17.068l 28.889-13.122
		l 23.63-10.068c 4.379-3.795, 6.569-8.752, 6.569-14.881c0.00-8.752-2.994-15.032-8.972-18.824c-5.981-3.792-13.21-5.689-21.664-5.689
		c-20.426,0.00-38.674,7.445-54.712,22.323l-33.702-34.138c 22.471-19.257, 47.276-29.036, 74.412-29.323l0.00-37.644 l 28.452,0.00 l0.00,37.644 
		c 16.914,1.455, 31.575,7.075, 43.99,16.848c 12.399,9.773, 20.20,22.386, 23.41,37.861l 92.35-41.138c-8.165-14.884-19.405-29.187-33.699-42.894
		c-39.978-39.981-87.534-59.97-142.676-59.97c-54.567,0.00-101.84,19.703-141.815,59.094c-39.683,39.68-59.518,86.661-59.518,140.933
		c0.00,23.919, 3.647,45.957, 10.936,66.087L 191.343,233.948z M 83.239,398.08C 35.09,349.061, 11.017,290.994, 11.017,223.883
		c0.00-66.819, 24.073-124.302, 72.216-172.451c 48.432-48.438, 105.918-72.653, 172.448-72.653c 67.403,0.00, 125.904,24.362, 175.514,73.093
		c 46.685,45.809, 70.03,103.144, 70.03,172.011c0.00,68.855-23.784,126.922-71.346,174.197c-47.273,47.273-105.339,70.906-174.197,70.906
		C 187.985,468.986, 130.506,445.353, 83.239,398.08"  />
<glyph unicode="&#xe019;" d="M 253.277,369.188c-1.909-1.756-2.849-3.942-2.849-6.569l0.00-1.747 l-6.123-96.726l-5.253,79.655l0.00,1.316 
		c-0.292,2.626-1.464,4.813-3.503,6.569c-2.042,1.747-4.379,2.623-7.002,2.623c-2.626,0.00-4.897-0.876-6.786-2.623
		c-1.906-1.747-2.997-3.939-3.283-6.569l0.00-1.316 l-6.569-91.47l-4.81,68.28l0.00,1.747 c0.00,2.915-1.027,5.40-3.066,7.445
		c-2.051,2.036-4.53,3.066-7.442,3.066c-2.918,0.00-5.409-1.03-7.442-3.066c-2.042-2.042-3.066-4.53-3.066-7.445l-8.312-96.723
		l-3.066,20.131c-0.879,4.954-3.873,7.80-8.972,8.532c-5.105,0.732-8.686-1.247-10.728-5.906l-13.571-27.576L 97.241,220.817 l0.00-21.004 l 50.766,0.00 
		c 4.662,0.00, 7.876,1.888, 9.632,5.686l 1.316,2.626l 10.936-75.288c 0.584-2.62, 1.816-4.747, 3.723-6.349c 1.894-1.596, 4.162-2.403, 6.782-2.403
		c 2.626,0.00, 4.957,0.876, 7.008,2.626c 2.039,1.747, 3.208,3.927, 3.503,6.563l 4.813,56.028l 6.123-87.534l0.00-1.319 l 0.44,0.00 l0.00-1.307 
		c 0.289-2.626, 1.455-4.81, 3.503-6.569c 2.036-1.747, 4.379-2.62, 7.005-2.62c 2.623,0.00, 4.882,0.876, 6.786,2.62
		c 1.891,1.756, 3.132,3.939, 3.72,6.569l0.00,1.307 l 5.253,83.601l 5.686-86.664l0.00-0.876 c0.00-2.921, 1.024-5.466, 3.066-7.656
		c 2.039-2.19, 4.527-3.283, 7.442-3.283s 5.397,1.087, 7.445,3.283c 2.036,2.19, 3.063,4.734, 3.063,7.656l0.00,1.319 l 5.692,93.657
		l 5.689-85.344l0.00-1.319 c 0.286-2.62, 1.449-4.81, 3.503-6.563c 2.036-1.756, 4.379-2.626, 7.002-2.626c 2.626,0.00, 4.882,0.876, 6.786,2.626
		c 1.894,1.747, 3.132,3.939, 3.723,6.563l 5.25,71.346l 6.126-75.719l0.00-1.307 c 0.289-2.626, 1.455-4.81, 3.503-6.569
		c 2.039-1.747, 4.382-2.62, 7.005-2.62s 4.882,0.876, 6.782,2.62c 1.903,1.756, 2.991,3.939, 3.283,6.569l 7.445,91.473l 3.93-31.518
		c 0.289-2.626, 1.244-4.81, 2.849-6.563c 1.596-1.756, 3.72-2.786, 6.346-3.066c 5.539-0.882, 9.336,1.307, 11.378,6.569l 17.944,43.77l 50.327,0.00 
		l0.00,21.004 l-57.332,0.00 c-4.96,0.00-8.312-2.184-10.068-6.563l-5.246-12.698l-11.381,95.416c-0.292,2.626-1.455,4.738-3.503,6.346
		c-2.042,1.599-4.379,2.406-7.005,2.406c-2.623,0.00-4.885-0.876-6.786-2.62c-1.903-1.756-2.994-3.942-3.28-6.572l-5.689-63.461
		l-5.692,78.779L 303.818,313.60 c0.00,2.912-1.024,5.397-3.063,7.445c-2.042,2.036-4.53,3.063-7.442,3.063c-2.915,0.00-5.40-1.027-7.445-3.063
		c-2.042-2.051-3.063-4.533-3.063-7.445l-4.813-58.651l-6.566,105.915l0.00,1.747 c-0.292,2.912-1.536,5.319-3.723,7.225
		c-2.187,1.894-4.747,2.696-7.665,2.406C 257.437,371.956, 255.166,370.941, 253.277,369.188 M 398.369,366.122
		c 39.096-38.807, 58.651-86.224, 58.651-142.24c0.00-56.32-19.26-103.156-57.775-140.499c-40.267-39.978-87.826-59.958-142.679-59.958
		c-54.856,0.00-102.132,19.845-141.812,59.531c-39.686,39.677-59.528,86.651-59.528,140.93c0.00,54.272, 19.98,101.689, 59.97,142.24
		c 38.511,39.102, 85.564,58.651, 141.152,58.651C 311.922,424.773, 359.261,405.221, 398.369,366.122 M 83.239,398.077
		C 35.087,349.058, 11.014,290.991, 11.014,223.88c0.00-67.117, 24.145-124.738, 72.445-172.89c 48.288-48.143, 105.698-72.21, 172.228-72.21
		c 67.692,0.00, 126.199,24.359, 175.514,73.093c 46.676,46.101, 70.03,103.43, 70.03,172.011c0.00,68.563-23.709,126.554-71.126,173.975
		c-47.423,47.411-105.559,71.126-174.417,71.126C 187.982,468.983, 130.506,445.344, 83.239,398.077"  />
<glyph unicode="&#xe01a;" d="M 398.369,366.122c 39.096-39.102, 58.651-86.507, 58.651-142.24c0.00-56.615-19.257-103.439-57.775-140.499
		c-40.562-39.978-88.121-59.958-142.679-59.958c-54.859,0.00-102.132,19.845-141.812,59.518c-39.683,39.683-59.528,86.664-59.528,140.936
		c0.00,53.977, 19.983,101.394, 59.961,142.24c 38.514,39.102, 85.637,58.651, 141.372,58.651C 311.995,424.773, 359.261,405.221, 398.369,366.122
		 M 83.239,398.077C 35.087,349.058, 11.017,290.988, 11.017,223.88c0.00-67.117, 24.07-124.738, 72.216-172.89
		c 48.724-48.143, 106.204-72.21, 172.448-72.21c 67.403,0.00, 125.904,24.359, 175.514,73.093c 46.676,45.806, 70.027,103.141, 70.027,172.011
		c0.00,68.563-23.781,126.63-71.343,174.197c-47.273,47.273-105.339,70.906-174.197,70.906C 187.979,468.983, 130.506,445.344, 83.239,398.077
		 M 256.12,313.60c 22.754,0.00, 34.138,11.378, 34.138,34.141c0.00,23.043-11.378,34.578-34.138,34.578c-22.763,0.00-34.141-11.529-34.141-34.578
		C 221.979,324.984, 233.355,313.60, 256.12,313.60 M 317.392,295.876c-3.214,3.066-6.861,4.599-10.939,4.599L 205.779,300.475 
		c-4.379,0.00-8.09-1.536-11.159-4.599c-3.063-3.063-4.59-6.782-4.59-11.159l0.00-100.229 l 28.015,0.00 l0.00-119.049 l 76.155,0.00 L 294.201,184.489 l 28.012,0.00 L 322.214,284.717 
		C 322.205,289.096, 320.599,292.813, 317.392,295.876"  />
<glyph unicode="&#xe01b;" d="M 170.773,160.858l 178.134,0.00 L 348.907,202.875 l-178.134,0.00 L 170.773,160.858 z M 170.773,239.64l 178.134,0.00 L 348.907,281.657 l-178.134,0.00 L 170.773,239.64 z M 398.369,365.685
		c 39.096-38.511, 58.651-85.781, 58.651-141.803c0.00-56.32-19.26-103.147-57.775-140.496c-40.559-39.981-88.121-59.97-142.679-59.97
		c-54.856,0.00-102.132,19.845-141.812,59.528c-39.686,39.391-59.528,86.371-59.528,140.936c0.00,53.977, 19.98,101.25, 59.97,141.803
		c 38.511,39.391, 85.624,59.091, 141.369,59.091C 312.287,424.773, 359.554,405.082, 398.369,365.685 M 83.239,397.64
		C 35.087,348.621, 11.014,290.696, 11.014,223.883c0.00-67.114, 24.073-124.738, 72.225-172.881c 48.724-48.146, 106.207-72.216, 172.448-72.216
		c 67.692,0.00, 126.199,24.215, 175.514,72.65c 46.676,46.396, 70.03,103.879, 70.03,172.454c0.00,68.563-23.784,126.491-71.346,173.758
		c-47.559,47.556-105.635,71.343-174.197,71.343C 188.274,468.983, 130.792,445.196, 83.239,397.64"  />
<glyph unicode="&#xe01c;" d="M 330.086,300.038c-20.718,0.00-37.861-6.864-51.426-20.57c-13.571-13.719-20.36-32.247-20.36-55.585
		c0.00-23.928, 6.638-42.604, 19.92-56.025c 13.276-13.423, 31.00-20.131, 53.173-20.131c 13.411,0.00, 25.826,3.427, 37.201,10.288
		c 11.381,6.855, 20.423,16.258, 27.139,28.229l-30.642,15.321c-5.834-14.005-15.902-21.01-30.196-21.01c-10.80,0.00-18.971,3.939-24.513,11.818
		c-5.545,7.876-8.315,18.384-8.315,31.515c0.00,28.889, 10.948,43.33, 32.828,43.33c 4.662,0.00, 9.556-1.455, 14.661-4.379
		c 5.102-2.915, 9.412-8.032, 12.914-15.318l 32.386,17.068C 382.021,288.223, 360.43,300.038, 330.086,300.038 M 188.274,300.038
		c-20.718,0.00-37.852-6.864-51.426-20.57c-13.562-13.719-20.35-32.247-20.35-55.585c0.00-23.928, 6.71-42.604, 20.131-56.025
		c 13.414-13.423, 31.075-20.131, 52.962-20.131c 13.71,0.00, 26.257,3.427, 37.644,10.288c 11.378,6.855, 20.272,16.258, 26.696,28.229l-30.196,15.321
		c-5.84-14.005-15.905-21.01-30.199-21.01c-10.80,0.00-18.971,3.939-24.51,11.818c-5.548,7.876-8.315,18.384-8.315,31.515
		c0.00,28.889, 10.948,43.33, 32.825,43.33c 4.379,0.00, 9.117-1.455, 14.222-4.379c 5.099-2.915, 9.409-8.032, 12.911-15.318l 32.825,17.068
		C 240.357,288.223, 218.621,300.038, 188.274,300.038 M 398.80,365.685c 18.965-18.968, 33.41-40.556, 43.336-64.777
		c 9.909-24.221, 14.878-49.896, 14.878-77.032c0.00-56.32-19.116-103.147-57.332-140.496c-19.851-19.26-42.089-34.00-66.747-44.21
		c-24.66-10.219-50.116-15.318-76.375-15.318c-26.552,0.00-51.941,5.033-76.155,15.101c-24.218,10.068-45.957,24.654-65.217,43.77
		c-19.26,19.101-34.072,40.843-44.43,65.214c-10.36,24.362-15.538,49.676-15.538,75.939c0.00,26.546, 5.177,52.01, 15.538,76.375
		c 10.351,24.359, 25.169,46.321, 44.43,65.867c 38.219,39.096, 85.347,58.651, 141.372,58.651C 311.995,424.773, 359.412,405.079, 398.80,365.685
		 M 83.67,397.64c-23.633-23.633-41.662-50.411-54.052-80.306c-12.405-29.919-18.601-61.058-18.601-93.443
		c0.00-32.681, 6.126-63.756, 18.384-93.229c 12.252-29.482, 30.127-55.959, 53.621-79.441c 23.483-23.489, 50.034-41.439, 79.658-53.829
		c 29.609-12.405, 60.618-18.604, 93.009-18.604c 32.382,0.00, 63.75,6.27, 94.097,18.821c 30.347,12.544, 57.483,30.639, 81.405,54.272
		c 23.046,22.468, 40.49,48.363, 52.308,77.691c 11.815,29.323, 17.724,60.762, 17.724,94.319c0.00,33.262-5.987,64.702-17.944,94.319
		c-11.966,29.612-29.482,55.95-52.522,78.999C 382.609,445.054, 324.25,468.98, 255.681,468.98C 187.687,468.98, 130.352,445.196, 83.67,397.64"  />
<glyph unicode="&#xe01d;" d="M 471.504,443.576L 471.486,35.418L 30.44,476.452L 3.539,449.566L 444.585,8.52L 36.424,8.508L 73.632-28.699L 508.636-28.633L 508.708,406.371 z"  />
<glyph unicode="&#xe01e;" d="M 475.817,8.499L 67.647,8.505L 508.702,449.56L 481.807,476.461L 40.746,35.403L 40.743,443.576L 3.536,406.368L 3.596-28.651L 438.612-28.705 z"  />
<glyph unicode="&#xe01f;" d="M 40.737,4.186L 40.755,412.344L 481.801-28.699L 508.702-1.807L 67.641,439.245L 475.817,439.257L 438.609,476.464L 3.602,476.392L 3.533,41.388 z"  />
<glyph unicode="&#xe020;" d="M 36.421,439.26L 444.594,439.257L 3.533-1.801L 30.431-28.699L 471.495,412.347L 471.498,4.189L 508.705,41.394L 508.633,476.395L 73.629,476.464 z"  />
<glyph unicode="&#xe021;" d="M 470.332,232.596L 269.363,31.636L 269.363,465.956L 242.878,465.956L 242.878,31.636L 41.906,232.596L 41.906,195.96L 256.12-18.197L 470.332,195.96 z"  />
<glyph unicode="&#xe022;" d="M 264.834,9.665L 63.867,210.634L 498.197,210.634L 498.197,237.122L 63.867,237.122L 264.834,438.094L 228.195,438.094L 14.044,223.88L 228.195,9.665 z"  />
<glyph unicode="&#xe023;" d="M 41.903,215.163L 242.875,416.13L 242.875-18.197L 269.36-18.197L 269.36,416.13L 470.332,215.163L 470.332,251.805L 256.117,465.956L 41.903,251.805 z"  />
<glyph unicode="&#xe024;" d="M 247.404,438.094L 448.37,237.125L 14.041,237.125L 14.041,210.637L 448.37,210.637L 247.404,9.665L 284.037,9.665L 498.197,223.88L 284.037,438.094 z"  />
<glyph unicode="&#xe025;" d="M 246.826,248.528l-22.513,39.02c-19.004-11.014-31.825-31.542-31.825-55.133l 45.017,0.00 
		C 237.511,239.33, 241.275,245.335, 246.826,248.528zM 256.142,213.787c-3.40,0.00-6.575,0.946-9.312,2.533l-22.513-38.987c 9.352-5.409, 20.224-8.514, 31.828-8.514
		c 11.583,0.00, 22.429,3.069, 31.78,8.514l-22.501,38.987C 262.689,214.733, 259.494,213.787, 256.142,213.787zM 249.82,221.536c 1.861-1.075, 4.039-1.675, 6.325-1.675c 2.238,0.00, 4.433,0.599, 6.277,1.675
		c 3.756,2.184, 6.298,6.267, 6.298,10.878c0.00,4.695-2.539,8.737-6.298,10.903c-1.843,1.096-4.039,1.699-6.277,1.699
		c-2.286,0.00-4.46-0.602-6.325-1.699c-3.723-2.165-6.274-6.207-6.274-10.903C 243.546,227.807, 246.097,223.75, 249.82,221.536zM 287.922,287.548l-22.501-39.02c 5.557-3.195, 9.303-9.201, 9.303-16.113l 45.032,0.00 
		C 319.756,256.006, 306.932,276.534, 287.922,287.548zM 404.923,467.432L 107.318,467.432 c-52.332,0.00-94.747-42.418-94.747-94.738l0.00-297.617 
		c0.00-52.323, 42.421-94.741, 94.747-94.741l 297.608,0.00 c 52.329,0.00, 94.744,42.421, 94.744,94.741L 499.67,372.691 
		C 499.67,425.014, 457.249,467.432, 404.923,467.432z M 121.657,79.39c0.00,0.00, 33.928,94.304, 41.785,153.757
		c 7.825,59.467-0.259,120.699-0.259,120.699c0.00,8.032, 41.595,14.526, 92.961,14.526c 51.336,0.00, 92.946-6.496, 92.946-14.526
		c0.00,0.00-8.096-61.232-0.277-120.699c 7.852-59.452, 41.77-153.757, 41.77-153.757L 121.657,79.39 z"  />
<glyph unicode="&#xe026;" d="M 190.271,248.709c 1.958,18.679, 11.818,35.759, 27.037,46.857c 5.816,4.244, 7.493,12.174, 3.90,18.429L 142.393,451.021
		c-1.915,3.322-5.099,5.716-8.809,6.659c-3.726,0.913-7.653,0.295-10.909-1.762C 51.712,411.247, 7.575,334.532, 4.617,250.678
		c-0.126-3.825, 1.289-7.544, 3.948-10.285c 2.641-2.759, 6.316-4.319, 10.135-4.319l 157.539,0.00 C 183.453,236.074, 189.512,241.528, 190.271,248.709zM 228.948,288.985c-16.745-9.752-27.142-27.844-27.142-47.179c0.00-19.39, 10.406-37.454, 27.169-47.206
		c 8.192-4.756, 17.58-7.27, 27.169-7.27c 9.577,0.00, 18.959,2.515, 27.163,7.27c 16.745,9.752, 27.169,27.844, 27.169,47.206
		c0.00,19.32-10.391,37.40-27.244,47.261C 266.499,298.68, 245.64,298.65, 228.948,288.985zM 321.961,248.709c 0.774-7.174, 6.792-12.631, 14.008-12.631l 157.57,0.00 c 3.816,0.00, 7.472,1.539, 10.141,4.319
		c 2.647,2.765, 4.069,6.457, 3.921,10.285c-2.939,83.854-47.059,160.605-118.037,205.255c-3.247,2.069-7.174,2.69-10.909,1.762
		c-3.704-0.928-6.909-3.322-8.824-6.644L 291.024,314.043c-3.578-6.255-1.888-14.191, 3.906-18.435
		C 310.139,284.491, 319.997,267.409, 321.961,248.709zM 300.996,175.246c-3.599,6.261-11.366,8.846-18.01,5.837c-16.492-7.418-37.117-7.451-53.745,0.027
		c-6.59,2.918-14.387,0.431-17.977-5.843l-78.818-137.08c-1.903-3.301-2.382-7.237-1.337-10.909c 1.057-3.671, 3.551-6.74, 6.936-8.532
		c 35.611-19.019, 76.457-29.082, 118.10-29.082s 82.468,10.062, 118.10,29.082c 3.364,1.804, 5.858,4.882, 6.894,8.532
		c 1.057,3.671, 0.578,7.599-1.325,10.909L 300.996,175.246z"  />
<glyph unicode="&#xe027;" d="M 122.591,288.922l 0.187,0.00 c 3.12-4.683, 8.538-7.162, 14.231-7.162c 13.866,0.00, 20.844,11.845, 20.844,24.516
		c0.00,13.496-6.704,25.525-21.576,25.525c-5.876,0.00-11.02-2.295-14.14-7.346l-0.184,0.00 l0.00,6.06 l-12.396,0.00 l0.00-64.184 l 13.038,0.00 L 122.594,288.922 z M 133.424,321.976
		c 8.355,0.00, 11.384-7.806, 11.384-15.336c0.00-7.713-2.756-15.059-11.294-15.059c-8.448,0.00-11.384,7.346-11.384,15.059C 122.13,314.353, 124.886,321.976, 133.424,321.976zM 176.893,304.438c0.00,8.355, 3.307,15.243, 12.857,15.243c 1.56,0.00, 3.488-0.184, 4.683-0.461l0.00,12.119 
		c-0.825,0.274-1.931,0.458-2.846,0.458c-6.337,0.00-12.761-4.132-15.149-10.101l-0.184,0.00 l0.00,8.815 l-12.396,0.00 l0.00-47.471 l 13.038,0.00 L 176.896,304.438 zM 220.377,281.76c 14.968,0.00, 24.609,9.915, 24.609,24.974c0.00,15.149-9.641,25.067-24.609,25.067c-14.872,0.00-24.516-9.915-24.516-25.067
		C 195.864,291.674, 205.505,281.76, 220.377,281.76z M 220.377,321.976c 8.909,0.00, 11.571-7.623, 11.571-15.243c0.00-7.529-2.662-15.149-11.571-15.149
		c-8.815,0.00-11.478,7.62-11.478,15.149C 208.902,314.353, 211.564,321.976, 220.377,321.976zM 251.266,348.603L 264.303,348.603L 264.303,337.86L 251.266,337.86zM 243.372,266.701c 1.376-0.184, 2.843-0.367, 4.222-0.367c 13.128,0.00, 16.709,4.59, 16.709,14.324L 264.303,330.514 l-13.038,0.00 l0.00-49.215 
		c0.00-3.581-2.385-4.222-5.051-4.222c-1.099,0.00-2.018,0.09-2.843,0.367L 243.372,266.701 zM 294.846,331.80c-14.414,0.00-24.239-10.833-24.239-25.067c0.00-14.691, 9.273-24.974, 24.239-24.974c 10.743,0.00, 18.546,4.774, 22.221,15.977l-11.478,0.00 
		c-0.825-2.939-5.051-6.15-10.285-6.15c-7.252,0.00-11.291,3.765-11.659,12.029l 34.247,0.00 C 318.81,318.211, 311.007,331.80, 294.846,331.80z
		 M 283.645,311.874c 0.184,3.674, 2.572,10.101, 10.833,10.101c 6.337,0.00, 9.183-3.491, 10.376-10.101L 283.645,311.874 zM 348.964,282.952l0.00,10.192 c-1.376-0.274-2.662-0.367-4.042-0.367c-4.406,0.00-5.509,1.102-5.509,5.512L 339.414,321.792 l 9.55,0.00 l0.00,8.722 l-9.55,0.00 
		l0.00,14.234 l-13.038,0.00 l0.00-14.234 l-7.897,0.00 l0.00-8.722 l 7.897,0.00 l0.00-28.006 c0.00-9.457, 6.978-11.294, 14.968-11.294C 343.913,282.491, 346.76,282.585, 348.964,282.952zM 404.856,295.165L 369.504,295.165L 369.504,311.233L 401.275,311.233L 401.275,322.437L 369.504,322.437L 369.504,336.483L 404.122,336.483L 404.122,348.603L 355.09,348.603L 355.09,283.043L 404.856,283.043 	zM 150.531,158.801c 16.258,11.363, 32.202,23.675, 32.202,41.514c0.00,19.26-14.682,28.889-32.994,28.889
		c-22.73,0.00-34.412-13.577-34.572-37.099l 3.156,0.00 c0.00,19.733, 8.999,33.943, 31.413,33.943c 17.05,0.00, 29.835-8.999, 29.835-25.733
		c0.00-16.89-16.101-28.729-32.518-39.939c-16.101-11.363-34.096-22.414-33.78-40.412l 72.297,0.00 l0.00,3.159 L 116.435,123.124 
		C 118.013,137.017, 133.957,147.435, 150.531,158.801zM 227.798,229.207c-30.783,0.00-40.571-28.732-40.571-55.567c0.00-26.838, 9.788-55.567, 40.571-55.567c 30.78,0.00, 40.568,28.729, 40.568,55.567
		C 268.366,200.475, 258.578,229.207, 227.798,229.207z M 227.798,121.23c-29.362,0.00-37.412,28.57-37.412,52.408
		c0.00,23.835, 8.05,52.408, 37.412,52.408s 37.409-28.573, 37.409-52.408C 265.207,149.802, 257.16,121.23, 227.798,121.23zM 275.715,207.42l0.00-3.156 c 10.577,3.00, 22.097,9.945, 28.573,18.944l 0.313,0.00 l0.00-103.24 l 3.159,0.00 L 307.76,227.313 l-3.47,0.00 
		C 295.288,217.049, 288.66,211.838, 275.715,207.42zM 380.344,177.583l0.00,0.316 c 13.101,1.262, 23.046,9.785, 23.046,24.94c0.00,19.101-16.577,26.362-33.623,26.362
		c-22.417,0.00-36.942-11.999-36.623-35.205l 3.153,0.00 c-0.313,21.471, 12.948,32.048, 33.47,32.048c 14.996,0.00, 30.148-5.999, 30.464-23.206
		c0.00-17.522-14.842-23.522-28.729-23.522l-7.734,0.00 l0.00-3.159 l 7.734,0.00 c 17.676-0.629, 30.783-8.21, 30.783-26.519c0.00-18.471-15.947-28.416-33.154-28.416
		c-22.417,0.00-37.572,12.152-35.834,35.045l-3.153,0.00 c-1.581-24.468, 14.676-38.204, 38.987-38.204c 19.417,0.00, 36.307,11.683, 36.307,31.572
		C 405.438,168.114, 392.966,176.321, 380.344,177.583z"  />
<glyph unicode="&#xe028;" d="M 493.333,236.526c-16.685-2.84-40.90,0.096-53.769,5.454c 26.681,2.229, 44.737,14.36, 51.682,30.801
		c-9.626-5.924-39.457-12.366-55.904-6.255c-0.825,3.885-1.702,7.584-2.629,10.945c-12.511,46.116-55.519,83.317-100.542,78.767
		c 3.623,1.467, 7.322,2.888, 11.011,4.075c 4.933,1.801, 34.051,6.59, 29.455,16.824c-3.882,9.053-39.403-6.828-46.11-8.912
		c 8.843,3.319, 23.438,9.053, 25.001,19.242c-13.505-1.894-26.805-8.294-37.087-17.628c 3.747,4.027, 6.563,8.912, 7.135,14.122
		c-36.12-23.079-57.208-69.62-74.243-114.787c-13.393,13.038-25.284,23.272-35.97,28.961c-29.883,16.017-65.617,32.747-121.702,53.603
		c-1.708-18.577, 9.165-43.27, 40.565-59.666c-6.804,0.898-19.215-1.184-29.172-3.557c 4.033-21.329, 17.275-38.813, 53.155-47.249
		c-16.423-1.138-24.907-4.882-32.539-12.89c 7.439-14.788, 25.687-32.229, 58.389-28.627c-36.397-15.736-14.836-44.833, 14.809-40.472
		c-50.571-52.275-130.262-48.438-175.974-4.692c 119.435-162.979, 379.124-96.392, 417.795,60.573
		C 465.724,214.917, 482.765,225.205, 493.333,236.526"  />
<glyph unicode="&#xe029;" d="M 265.879,43.716l 239.363,346.985c 2.482,3.593, 2.765,8.267, 0.732,12.14c-2.033,3.861-6.048,6.28-10.421,6.283
	L 16.676,409.133 c-4.37,0.00-8.373-2.43-10.403-6.298c-0.904-1.714-1.337-3.593-1.352-5.469c 0.003-2.337, 0.705-4.674, 2.084-6.68l 239.502-346.982
	c 2.193-3.183, 5.825-5.078, 9.689-5.075C 260.066,38.638, 263.686,40.532, 265.879,43.716z"  />
<glyph unicode="&#xe02a;" d="M 75.951,214.124l 346.985-239.363c 3.593-2.47, 8.267-2.762, 12.14-0.729c 3.864,2.033, 6.283,6.036, 6.283,10.418
	l 0.003,478.874c-0.003,4.373-2.434,8.373-6.301,10.406c-1.711,0.901-3.593,1.337-5.457,1.352c-2.337-0.006-4.674-0.705-6.683-2.084
	l-346.979-239.505c-3.186-2.193-5.078-5.825-5.078-9.692C 70.873,219.934, 72.779,216.314, 75.951,214.124z"  />
<glyph unicode="&#xe02b;" d="M 246.356,404.049l-239.363-346.985c-2.47-3.593-2.762-8.267-0.729-12.14c 2.033-3.864, 6.036-6.283, 10.418-6.283
	l 478.871-0.003c 4.373,0.003, 8.373,2.434, 10.406,6.301c 0.901,1.711, 1.337,3.593, 1.352,5.457c-0.006,2.337-0.705,4.674-2.084,6.683
	l-239.502,346.979c-2.193,3.186-5.825,5.078-9.692,5.078C 252.172,409.127, 248.552,407.221, 246.356,404.049z"  />
<glyph unicode="&#xe02c;" d="M 436.284,233.638L 89.305,472.998c-3.596,2.482-8.27,2.762-12.14,0.729c-3.87-2.033-6.298-6.036-6.298-10.406
	l0.00-478.868 c0.00-4.373, 2.43-8.385, 6.298-10.418c 1.714-0.901, 3.593-1.349, 5.469-1.349c 2.34,0.00, 4.677,0.699, 6.68,2.081l 346.976,239.514
	c 3.186,2.193, 5.078,5.81, 5.078,9.677S 439.465,231.442, 436.284,233.638z"  />
<glyph unicode="&#xe02d;" d="M 280.013,298.598L 232.204,298.598L 232.204,247.212L 182.38,247.212L 182.38,200.55L 232.204,200.55L 232.204,149.17L 280.013,149.17L 280.013,200.55L 329.836,200.55L 329.836,247.212L 280.013,247.212 	z"  />
<glyph unicode="&#xe02e;" d="M 385.723,257.596c-0.943,1.102-23.51,27.214-58.672,47.676c-19.155,11.147-37.999,18.218-51.272,22.362
	c 0.048,0.56, 0.072,1.126, 0.072,1.699c0.00,7.758-4.527,14.737-11.333,17.953c 3.075,13.716, 6.427,33.756, 6.427,55.977
	c0.00,40.945-11.128,73.695-11.601,75.068c-0.473,1.376-1.771,2.301-3.226,2.301s-2.75-0.925-3.226-2.301
	c-0.473-1.376-11.607-34.123-11.607-75.068c0.00-22.173, 3.361-42.231, 6.445-55.977c-6.813-3.217-11.348-10.195-11.348-17.953
	c0.00-0.56, 0.027-1.129, 0.078-1.699c-13.276-4.138-32.117-11.204-51.269-22.362c-35.156-20.462-57.72-46.574-58.666-47.676
	c-0.943-1.102-1.084-2.68-0.355-3.933c 0.726-1.253, 2.165-1.906, 3.596-1.635c 1.419,0.277, 35.12,6.948, 70.28,27.41
	c 19.182,11.168, 34.644,24.076, 44.812,33.584c 1.551-1.084, 3.244-1.937, 5.036-2.536l-8.605-339.86c-0.024-0.922, 0.325-1.807, 0.97-2.47
	c 0.642-0.66, 1.521-1.03, 2.443-1.03l 22.835,0.00 c 0.024,0.00, 0.051-0.003, 0.069,0.00c 1.885,0.00, 3.412,1.524, 3.412,3.412c0.00,0.262-0.027,0.518-0.081,0.768
	l-8.587,339.176c 1.789,0.596, 3.482,1.449, 5.027,2.536c 10.222-9.532, 25.736-22.459, 44.851-33.581c 35.147-20.465, 68.858-27.136, 70.277-27.41
	c 1.437-0.277, 2.87,0.382, 3.596,1.635C 386.807,254.919, 386.662,256.497, 385.723,257.596z"  />
<glyph unicode="&#xe02f;" d="M 383.331,255.428c0.00,0.00-22.763,26.582-57.886,47.02c-20.293,11.809-40.246,18.995-53.507,22.959
		c 0.352,1.298, 0.524,2.665, 0.524,4.09c0.00,7.569-5.06,13.92-11.936,15.839c 3.208,13.577, 7.023,34.59, 7.023,58.208
		c0.00,40.909-11.436,74.071-11.436,74.071s-11.439-33.166-11.439-74.071c0.00-23.618, 3.828-44.631, 7.038-58.208
		c-6.876-1.922-11.951-8.27-11.951-15.839c0.00-1.425, 0.205-2.792, 0.536-4.09c-13.279-3.963-33.232-11.15-53.507-22.959
		C 151.672,282.01, 128.904,255.428, 128.904,255.428s 34.205,6.614, 69.322,27.052c 20.278,11.809, 36.43,25.642, 46.441,35.238
		c 2.337-2.28, 5.355-3.879, 8.686-4.46L 244.67-29.862l 22.871,0.00 L 258.858,313.257c 3.346,0.578, 6.349,2.178, 8.668,4.46
		c 10.047-9.595, 26.196-23.426, 46.49-35.238C 349.118,262.039, 383.331,255.428, 383.331,255.428"  />
<glyph unicode="&#xe030;" d="M 404.923,467.432L 107.321,467.432 c-52.332,0.00-94.75-42.418-94.75-94.738l0.00-297.617 c0.00-52.323, 42.424-94.741, 94.75-94.741
	l 297.605,0.00 c 52.332,0.00, 94.744,42.421, 94.744,94.741L 499.67,372.691 C 499.67,425.014, 457.252,467.432, 404.923,467.432z M 450.961,110.827
	c-10.818,0.00-15.95-3.59-21.89-7.749c-6.228-4.361-13.282-9.303-26.817-9.303c-13.535,0.003-20.588,4.942-26.82,9.303
	c-5.939,4.159-11.071,7.749-21.893,7.749c-10.812,0.00-15.944-3.59-21.877-7.746c-6.231-4.364-13.294-9.306-26.841-9.306
	c-13.535,0.003-20.585,4.945-26.817,9.306c-5.939,4.156-11.062,7.746-21.88,7.746c-10.821,0.00-15.956-3.59-21.896-7.749
	c-6.231-4.361-13.294-9.303-26.838-9.303c-13.52,0.003-20.57,4.942-26.793,9.303c-5.942,4.159-11.071,7.749-21.893,7.749
	c-10.836,0.00-15.968-3.596-21.911-7.752c-6.228-4.361-13.282-9.30-26.808-9.30c-13.523,0.003-20.576,4.942-26.805,9.30
	c-5.942,4.162-11.077,7.752-21.914,7.752c-2.37,0.00-4.295,1.925-4.295,4.295s 1.925,4.295, 4.295,4.295c 13.544,0.00, 20.606-4.942, 26.841-9.306
	c 5.939-4.156, 11.065-7.743, 21.874-7.746c 10.812,0.00, 15.938,3.59, 21.874,7.746c 6.231,4.364, 13.294,9.306, 26.841,9.306
	c 13.535,0.00, 20.594-4.942, 26.82-9.303c 5.936-4.159, 11.059-7.746, 21.865-7.749c 10.833,0.00, 15.968,3.59, 21.911,7.752
	c 6.228,4.361, 13.291,9.30, 26.823,9.30c 13.532,0.00, 20.582-4.942, 26.814-9.30c 5.939-4.159, 11.065-7.749, 21.886-7.752
	c 10.833,0.00, 15.968,3.596, 21.911,7.752c 6.228,4.361, 13.282,9.30, 26.811,9.30c 13.535,0.00, 20.594-4.942, 26.823-9.303
	c 5.939-4.156, 11.071-7.746, 21.89-7.749c 10.818,0.00, 15.95,3.59, 21.89,7.749c 6.228,4.361, 13.282,9.303, 26.817,9.303
	c 2.37,0.00, 4.295-1.925, 4.295-4.295S 453.331,110.827, 450.961,110.827z M 450.961,157.741c-10.818,0.00-15.95-3.59-21.89-7.749
	c-6.228-4.361-13.282-9.303-26.817-9.303c-13.535,0.003-20.588,4.942-26.82,9.303c-5.939,4.159-11.071,7.749-21.893,7.749
	c-10.812,0.00-15.944-3.59-21.877-7.746c-6.231-4.364-13.294-9.306-26.841-9.306c-13.535,0.003-20.585,4.945-26.817,9.306
	c-5.939,4.156-11.062,7.746-21.88,7.746c-10.821,0.00-15.956-3.59-21.896-7.749c-6.231-4.361-13.294-9.303-26.838-9.303
	c-13.52,0.003-20.57,4.942-26.793,9.303c-5.942,4.159-11.071,7.749-21.893,7.749c-10.836,0.00-15.968-3.596-21.911-7.752
	c-6.228-4.361-13.282-9.30-26.808-9.30c-13.523,0.003-20.576,4.942-26.805,9.30c-5.942,4.162-11.077,7.752-21.914,7.752
	c-2.37,0.00-4.295,1.925-4.295,4.295s 1.925,4.295, 4.295,4.295c 13.544,0.00, 20.606-4.942, 26.841-9.306c 5.939-4.156, 11.065-7.743, 21.874-7.746
	c 10.812,0.00, 15.938,3.59, 21.874,7.746c 6.231,4.364, 13.294,9.306, 26.841,9.306c 13.535,0.00, 20.594-4.942, 26.82-9.303
	c 5.936-4.159, 11.059-7.746, 21.865-7.749c 10.833,0.00, 15.968,3.59, 21.911,7.752c 6.228,4.361, 13.291,9.30, 26.823,9.30
	c 13.532,0.00, 20.582-4.942, 26.814-9.30c 5.939-4.159, 11.065-7.749, 21.886-7.752c 10.833,0.00, 15.968,3.596, 21.911,7.752
	c 6.228,4.361, 13.282,9.30, 26.811,9.30c 13.535,0.00, 20.594-4.942, 26.823-9.303c 5.939-4.156, 11.071-7.746, 21.89-7.749
	c 10.818,0.00, 15.95,3.59, 21.89,7.749c 6.228,4.361, 13.282,9.303, 26.817,9.303c 2.37,0.00, 4.295-1.925, 4.295-4.295S 453.331,157.741, 450.961,157.741
	z M 450.961,204.664c-10.818,0.00-15.95-3.59-21.89-7.749c-6.228-4.361-13.282-9.303-26.817-9.303c-13.535,0.003-20.588,4.942-26.82,9.303
	c-5.939,4.159-11.071,7.749-21.893,7.749c-10.812,0.00-15.944-3.59-21.877-7.746c-6.231-4.364-13.294-9.306-26.841-9.306
	c-13.535,0.003-20.585,4.945-26.817,9.306c-5.939,4.156-11.062,7.746-21.88,7.746c-10.821,0.00-15.956-3.59-21.896-7.749
	c-6.231-4.361-13.294-9.303-26.838-9.303c-13.52,0.003-20.57,4.942-26.793,9.303c-5.942,4.159-11.071,7.749-21.893,7.749
	c-10.836,0.00-15.968-3.596-21.911-7.752c-6.228-4.361-13.282-9.30-26.808-9.30c-13.523,0.003-20.576,4.942-26.805,9.30
	c-5.942,4.162-11.077,7.752-21.914,7.752c-2.37,0.00-4.295,1.925-4.295,4.295s 1.925,4.295, 4.295,4.295c 13.544,0.00, 20.606-4.942, 26.841-9.306
	c 5.939-4.156, 11.065-7.743, 21.874-7.746c 10.812,0.00, 15.938,3.59, 21.874,7.746c 6.231,4.364, 13.294,9.306, 26.841,9.306
	c 13.535,0.00, 20.594-4.942, 26.82-9.303c 5.936-4.159, 11.059-7.746, 21.865-7.749c 10.833,0.00, 15.968,3.59, 21.911,7.752
	c 6.228,4.361, 13.291,9.30, 26.823,9.30c 13.532,0.00, 20.582-4.942, 26.814-9.30c 5.939-4.159, 11.065-7.749, 21.886-7.752
	c 10.833,0.00, 15.968,3.596, 21.911,7.752c 6.228,4.361, 13.282,9.30, 26.811,9.30c 13.535,0.00, 20.594-4.942, 26.823-9.303
	c 5.939-4.156, 11.071-7.746, 21.89-7.749c 10.818,0.00, 15.95,3.59, 21.89,7.749c 6.228,4.361, 13.282,9.303, 26.817,9.303
	c 2.37,0.00, 4.295-1.925, 4.295-4.295S 453.331,204.664, 450.961,204.664z M 450.961,251.582c-10.818,0.00-15.95-3.59-21.89-7.752
	c-6.228-4.361-13.282-9.303-26.817-9.303c-13.535,0.003-20.588,4.945-26.82,9.303c-5.942,4.162-11.071,7.752-21.893,7.752
	c-10.812,0.00-15.944-3.59-21.877-7.746c-6.231-4.364-13.294-9.309-26.841-9.309c-13.535,0.003-20.588,4.945-26.817,9.306
	c-5.939,4.159-11.065,7.749-21.88,7.749c-10.821,0.00-15.956-3.59-21.896-7.749c-6.231-4.361-13.294-9.306-26.838-9.306
	c-13.52,0.003-20.57,4.942-26.796,9.303c-5.939,4.159-11.065,7.752-21.89,7.752c-10.836,0.00-15.968-3.596-21.911-7.752
	c-6.228-4.364-13.282-9.303-26.808-9.303c-13.523,0.003-20.576,4.942-26.805,9.303c-5.942,4.159-11.077,7.752-21.914,7.752
	c-2.37,0.00-4.295,1.922-4.295,4.295c0.00,2.367, 1.925,4.295, 4.295,4.295c 13.544,0.00, 20.606-4.945, 26.841-9.309c 5.939-4.156, 11.062-7.743, 21.874-7.746
	c 10.812,0.00, 15.938,3.59, 21.874,7.746c 6.231,4.364, 13.294,9.309, 26.841,9.309c 13.535,0.00, 20.594-4.945, 26.82-9.306
	c 5.936-4.159, 11.059-7.746, 21.865-7.749c 10.833,0.00, 15.968,3.596, 21.911,7.752c 6.228,4.361, 13.291,9.303, 26.823,9.303
	c 13.532,0.00, 20.582-4.942, 26.811-9.303c 5.942-4.159, 11.071-7.749, 21.89-7.752c 10.833,0.00, 15.968,3.596, 21.911,7.752
	c 6.228,4.364, 13.282,9.303, 26.811,9.303c 13.535,0.00, 20.594-4.942, 26.82-9.303c 5.942-4.159, 11.071-7.749, 21.893-7.752
	c 10.818,0.00, 15.95,3.59, 21.89,7.752c 6.228,4.361, 13.282,9.303, 26.817,9.303c 2.37,0.00, 4.295-1.928, 4.295-4.295
	C 455.255,253.503, 453.331,251.582, 450.961,251.582z M 450.961,298.493c-10.818,0.00-15.953-3.59-21.89-7.746
	c-6.228-4.364-13.282-9.303-26.817-9.303s-20.588,4.942-26.82,9.303c-5.942,4.156-11.071,7.746-21.893,7.746
	c-10.815,0.00-15.944-3.59-21.88-7.746c-6.228-4.361-13.294-9.303-26.838-9.303c-13.535,0.00-20.588,4.942-26.817,9.303
	c-5.939,4.156-11.065,7.746-21.88,7.746c-10.821,0.00-15.956-3.59-21.896-7.746c-6.231-4.364-13.294-9.303-26.838-9.303
	c-13.52,0.00-20.573,4.942-26.796,9.30c-5.939,4.159-11.065,7.749-21.89,7.749c-10.836,0.00-15.968-3.59-21.914-7.752
	c-6.228-4.358-13.279-9.297-26.805-9.297s-20.576,4.942-26.805,9.297c-5.942,4.162-11.077,7.752-21.914,7.752c-2.37,0.00-4.295,1.925-4.295,4.295
	s 1.925,4.295, 4.295,4.295c 13.544,0.00, 20.606-4.942, 26.841-9.303c 5.936-4.156, 11.062-7.746, 21.874-7.746s 15.944,3.59, 21.874,7.746
	c 6.231,4.361, 13.294,9.303, 26.841,9.303c 13.535,0.00, 20.588-4.942, 26.82-9.303c 5.936-4.156, 11.056-7.746, 21.865-7.746
	c 10.833,0.00, 15.968,3.59, 21.911,7.752c 6.228,4.358, 13.291,9.297, 26.823,9.297c 13.526,0.00, 20.582-4.942, 26.811-9.30
	c 5.939-4.159, 11.065-7.749, 21.89-7.749c 10.836,0.00, 15.968,3.59, 21.914,7.752c 6.228,4.358, 13.282,9.297, 26.808,9.297
	c 13.535,0.00, 20.588-4.942, 26.82-9.303c 5.942-4.156, 11.071-7.746, 21.893-7.746c 10.818,0.00, 15.953,3.59, 21.89,7.746
	c 6.228,4.364, 13.282,9.303, 26.817,9.303c 2.37,0.00, 4.295-1.925, 4.295-4.295S 453.331,298.493, 450.961,298.493z M 450.961,345.41
	c-10.818,0.00-15.953-3.59-21.89-7.746c-6.228-4.361-13.282-9.303-26.817-9.303c-13.535,0.003-20.588,4.942-26.82,9.303
	c-5.939,4.156-11.071,7.746-21.893,7.746c-10.815,0.00-15.944-3.587-21.88-7.743c-6.228-4.361-13.294-9.306-26.838-9.306
	c-13.535,0.003-20.588,4.945-26.817,9.303c-5.939,4.159-11.065,7.746-21.88,7.746c-10.821,0.00-15.956-3.587-21.896-7.746
	c-6.231-4.361-13.294-9.303-26.838-9.303c-13.52,0.003-20.57,4.942-26.796,9.303c-5.939,4.156-11.065,7.746-21.89,7.746
	c-10.836,0.00-15.968-3.59-21.914-7.752c-6.228-4.358-13.279-9.297-26.805-9.297c-13.523,0.003-20.576,4.942-26.805,9.30
	c-5.942,4.159-11.077,7.749-21.914,7.749c-2.37,0.00-4.295,1.928-4.295,4.295c0.00,2.376, 1.925,4.295, 4.295,4.295c 13.544,0.00, 20.606-4.942, 26.841-9.303
	c 5.939-4.156, 11.062-7.743, 21.874-7.746c 10.812,0.00, 15.944,3.59, 21.874,7.746c 6.231,4.364, 13.294,9.303, 26.841,9.303
	c 13.535,0.00, 20.594-4.942, 26.82-9.303c 5.936-4.156, 11.059-7.743, 21.865-7.746c 10.833,0.00, 15.968,3.59, 21.911,7.752
	c 6.228,4.358, 13.291,9.297, 26.823,9.297c 13.526,0.00, 20.582-4.942, 26.811-9.297c 5.942-4.159, 11.071-7.749, 21.89-7.752
	c 10.836,0.00, 15.968,3.596, 21.914,7.752c 6.228,4.358, 13.282,9.297, 26.808,9.297c 13.535,0.00, 20.594-4.942, 26.82-9.297
	c 5.942-4.162, 11.071-7.749, 21.893-7.752c 10.818,0.00, 15.953,3.59, 21.89,7.749c 6.228,4.361, 13.282,9.30, 26.817,9.30
	c 2.37,0.00, 4.295-1.922, 4.295-4.295C 455.255,347.335, 453.331,345.41, 450.961,345.41z"  />
<glyph unicode="&#xe031;" d="M 404.923,467.432L 107.318,467.432 c-52.332,0.00-94.747-42.418-94.747-94.738l0.00-297.617 c0.00-52.323, 42.421-94.741, 94.747-94.741
	l 297.608,0.00 c 52.332,0.00, 94.744,42.421, 94.744,94.741L 499.67,372.691 C 499.67,425.014, 457.252,467.432, 404.923,467.432z M 395.71,217.344l-56.669,0.00 
	c-0.53-7.379-1.97-14.52-4.213-21.284l 52.335-21.694c 3.337-1.364, 4.915-5.192, 3.536-8.538c-1.045-2.506-3.479-4.036-6.039-4.036
	c-0.843,0.00-1.687,0.163-2.506,0.497l-52.332,21.676c-3.292-6.511-7.355-12.553-12.083-18.022l 40.069-40.069c 2.563-2.554, 2.563-6.701,0.00-9.246
	c-1.274-1.283-2.946-1.915-4.617-1.915c-1.672,0.00-3.355,0.632-4.632,1.915l-40.062,40.069c-5.469-4.728-11.517-8.797-18.037-12.074
	l 21.682-52.338c 1.373-3.328-0.205-7.153-3.536-8.532c-0.825-0.343-1.662-0.503-2.506-0.503c-2.557,0.00-4.994,1.509-6.039,4.039l-21.679,52.338
	c-6.767-2.256-13.905-3.683-21.287-4.216l0.00-56.678 c0.00-3.599-2.93-6.523-6.536-6.523c-3.611,0.00-6.533,2.927-6.533,6.523l0.00,56.678 
	c-7.382,0.53-14.523,1.958-21.302,4.216l-21.676-52.338c-1.039-2.527-3.476-4.039-6.042-4.039c-0.831,0.00-1.675,0.157-2.50,0.503
	c-3.334,1.382-4.921,5.21-3.536,8.532l 21.676,52.338c-6.511,3.274-12.559,7.346-18.037,12.074l-40.062-40.069
	c-1.277-1.283-2.949-1.915-4.626-1.915c-1.666,0.00-3.352,0.632-4.623,1.915c-2.56,2.557-2.56,6.692,0.00,9.246l 40.066,40.069
	c-4.716,5.469-8.785,11.514-12.071,18.022l-52.335-21.676c-0.822-0.337-1.672-0.497-2.506-0.497c-2.56,0.00-4.997,1.527-6.042,4.036
	c-1.382,3.346, 0.205,7.174, 3.536,8.538l 52.338,21.694c-2.241,6.767-3.683,13.905-4.216,21.284L 105.415,217.344 c-3.611,0.00-6.536,2.927-6.536,6.542
	c0.00,3.605, 2.927,6.536, 6.536,6.536l 56.666,0.00 c 0.53,7.379, 1.973,14.52, 4.216,21.287l-52.338,21.676c-3.334,1.382-4.921,5.21-3.536,8.544
	c 1.382,3.331, 5.21,4.921, 8.544,3.536l 52.335-21.682c 3.286,6.52, 7.355,12.565, 12.071,18.031L 143.303,321.888
	c-2.56,2.566-2.56,6.698,0.00,9.246c 2.548,2.563, 6.689,2.563, 9.246,0.00l 40.062-40.069c 5.478,4.728, 11.526,8.797, 18.037,12.086l-21.676,52.329
	c-1.382,3.337, 0.205,7.165, 3.536,8.547c 3.337,1.37, 7.156-0.214, 8.538-3.536l 21.676-52.338c 6.779,2.241, 13.92,3.68, 21.302,4.213L 244.019,369.035 
	c0.00,3.611, 2.924,6.533, 6.533,6.533c 3.608,0.00, 6.536-2.924, 6.536-6.533l0.00-56.669 c 7.382-0.53, 14.523-1.97, 21.287-4.213l 21.679,52.338
	c 1.382,3.328, 5.21,4.912, 8.544,3.536c 3.334-1.382, 4.921-5.213, 3.536-8.547l-21.682-52.329c 6.52-3.289, 12.568-7.358, 18.037-12.086
	l 40.062,40.081c 2.563,2.554, 6.698,2.554, 9.246,0.00c 2.563-2.557, 2.563-6.689,0.00-9.255L 317.741,281.823c 4.728-5.469, 8.797-11.514, 12.083-18.031
	l 52.332,21.682c 3.34,1.382, 7.165-0.211, 8.544-3.536c 1.373-3.337-0.202-7.162-3.536-8.544l-52.335-21.676
	c 2.241-6.77, 3.68-13.908, 4.213-21.287l 56.669,0.00 c 3.611,0.00, 6.536-2.936, 6.536-6.536C 402.248,220.274, 399.324,217.344, 395.71,217.344z"  />
<glyph unicode="&#xe032;" d="M 404.923,467.432L 107.321,467.432 c-52.332,0.00-94.75-42.418-94.75-94.738l0.00-297.617 c0.00-52.323, 42.424-94.741, 94.75-94.741
	l 297.605,0.00 c 52.332,0.00, 94.744,42.421, 94.744,94.741L 499.67,372.691 C 499.67,425.014, 457.252,467.432, 404.923,467.432z M 221.136,340.119
	c-55.154-15.553-93.669-66.461-93.669-123.796c0.00-35.111, 14.014-67.954, 38.855-92.085l 10.662,19.477l 40.059-65.885l-77.086-1.75
	l 11.059,20.20c-34.726,30.344-54.48,73.598-54.48,120.043c0.00,71.123, 47.785,134.27, 116.203,153.567c 8.222,2.322, 16.763-2.47, 19.086-10.689
	S 229.355,342.438, 221.136,340.119z M 299.496,62.759c-1.403-0.395-2.816-0.584-4.204-0.584c-6.752,0.00-12.957,4.454-14.878,11.273
	c-2.319,8.222, 2.467,16.76, 10.689,19.08c 55.148,15.547, 93.666,66.458, 93.666,123.796c0.00,35.105-14.014,67.948-38.855,92.085l-10.665-19.477
	L 295.195,354.816l 77.086,1.75l-11.059-20.20c 34.726-30.344, 54.48-73.602, 54.48-120.043C 415.699,145.197, 367.914,82.05, 299.496,62.759z
	"  />
<glyph unicode="&#xe033;" d="M 404.917,467.432L 107.318,467.432 c-52.335,0.00-94.747-42.418-94.747-94.738l0.00-297.617 c0.00-52.323, 42.418-94.741, 94.747-94.741
	l 297.605,0.00 c 52.332,0.00, 94.744,42.421, 94.744,94.741L 499.667,372.691 C 499.667,425.014, 457.249,467.432, 404.917,467.432z M 395.415,80.685L 329.219,80.685 L 267.893,80.685 
	l-4.87,0.00 L 206.571,80.685 l-4.87,0.00 L 149.829,80.685 l-9.451,0.00 l-18.616,0.00 l 4.87,308.676l 18.333,0.00 l 2.566-162.961l 59.043,41.665l0.00-43.276 l 61.326,43.276l0.00-43.276 
	l 61.326,43.276l0.00-46.712 l 66.196,46.712L 395.418,80.685 z"  />
<glyph unicode="&#xe034;" d="M 404.923,467.432L 107.318,467.432 c-52.332,0.00-94.747-42.418-94.747-94.738l0.00-297.617 c0.00-52.323, 42.421-94.741, 94.747-94.741
	l 297.608,0.00 c 52.332,0.00, 94.741,42.421, 94.741,94.741L 499.667,372.691 C 499.667,425.014, 457.252,467.432, 404.923,467.432z M 319.991,216.796
	c-22.38,12.933-40.186,28.076-51.263,38.575c-2.575-2.50-5.888-4.283-9.568-4.90l 9.574-240.107l-25.236,0.00 l 9.577,240.107
	c-3.677,0.617-6.993,2.403-9.565,4.90c-11.083-10.499-28.886-25.642-51.263-38.575c-38.749-22.38-76.493-29.609-76.493-29.609
	s 25.118,29.082, 63.867,51.48c 22.377,12.914, 44.39,20.769, 59.028,25.112c-0.358,1.431-0.578,2.927-0.578,4.463
	c0.00,8.276, 5.593,15.24, 13.192,17.36c-3.566,14.833-7.767,37.837-7.767,63.687c0.00,44.755, 12.613,81.038, 12.613,81.038s 12.622-36.286, 12.622-81.038
	c0.00-25.85-4.204-48.854-7.77-63.687c 7.608-2.12, 13.182-9.083, 13.182-17.36c0.00-1.536-0.211-3.036-0.563-4.463
	c 14.64-4.343, 36.653-12.198, 59.031-25.112c 38.749-22.402, 63.867-51.48, 63.867-51.48S 358.737,194.415, 319.991,216.796z"  />
<glyph unicode="&#xe035;" d="M 256.117,476.729c-139.415,0.00-252.844-113.426-252.844-252.847c0.00-139.418, 113.426-252.844, 252.844-252.844
		c 139.421,0.00, 252.85,113.426, 252.85,252.844C 508.967,363.30, 395.538,476.729, 256.117,476.729z M 256.117,0.768
		c-123.022,0.00-223.109,100.087-223.109,223.118c0.00,123.022, 100.087,223.109, 223.109,223.109c 123.028,0.00, 223.118-100.087, 223.118-223.109
		C 479.232,100.858, 379.142,0.768, 256.117,0.768zM 291.632,334.917L 220.579,334.917L 220.579,258.551L 146.537,258.551L 146.537,189.211L 220.579,189.211L 220.579,112.851L 291.632,112.851L 291.632,189.211L 365.673,189.211L 365.673,258.551L 291.632,258.551 	z"  />
<glyph unicode="&#xe036;" d="M 256.117,480.373C 114.691,480.373-0.373,365.312-0.373,223.88c0.00-141.429, 115.061-256.491, 256.491-256.491
		c 141.432,0.00, 256.497,115.061, 256.497,256.491C 512.614,365.312, 397.55,480.373, 256.117,480.373z M 256.117-2.449
		c-124.795,0.00-226.325,101.53-226.325,226.334c0.00,124.795, 101.53,226.325, 226.325,226.325c 124.802,0.00, 226.331-101.533, 226.331-226.325
		C 482.449,99.081, 380.919-2.449, 256.117-2.449zM 292.141,336.517L 220.067,336.517L 220.067,259.051L 144.956,259.051L 144.956,188.711L 220.067,188.711L 220.067,111.252L 292.141,111.252L 292.141,188.711L 367.252,188.711L 367.252,259.051L 292.141,259.051 	z"  />
<glyph unicode="&#xe037;" d="M 256.117,467.573c-134.367,0.00-243.691-109.318-243.691-243.694c0.00-134.37, 109.318-243.691, 243.691-243.691
		c 134.373,0.00, 243.697,109.321, 243.697,243.691C 499.814,358.255, 390.49,467.573, 256.117,467.573z M 256.117,8.846
		c-118.567,0.00-215.031,96.464-215.031,215.04c0.00,118.567, 96.464,215.031, 215.031,215.031c 118.573,0.00, 215.037-96.464, 215.037-215.031
		C 471.154,105.309, 374.691,8.846, 256.117,8.846zM 290.346,330.897L 221.865,330.897L 221.865,257.295L 150.504,257.295L 150.504,190.467L 221.865,190.467L 221.865,116.872L 290.346,116.872L 290.346,190.467L 361.704,190.467L 361.704,257.295L 290.346,257.295 	z"  />
<glyph unicode="&#xe038;" d="M 256.117,394.023c-93.813,0.00-170.141-76.324-170.141-170.141c0.00-93.816, 76.324-170.141, 170.141-170.141
		c 93.816,0.00, 170.141,76.324, 170.141,170.141C 426.258,317.699, 349.934,394.023, 256.117,394.023z M 256.117,73.749
		c-82.781,0.00-150.13,67.349-150.13,150.136c0.00,82.781, 67.349,150.13, 150.13,150.13c 82.784,0.00, 150.136-67.349, 150.136-150.13
		C 406.251,141.098, 338.902,73.749, 256.117,73.749zM 280.013,298.598L 232.204,298.598L 232.204,247.212L 182.38,247.212L 182.38,200.55L 232.204,200.55L 232.204,149.17L 280.013,149.17L 280.013,200.55L 329.836,200.55L 329.836,247.212L 280.013,247.212 	z"  />
<glyph unicode="&#xe039;" d="M 431.547,399.188c-47.444,47.396-105.523,71.075-174.231,71.075c-67.897,0.00-125.362-23.682-172.393-71.075
	c-48.276-49.019-72.385-107.014-72.385-174.026c0.00-66.985, 24.118-124.597, 72.385-172.779c 48.261-48.218, 105.728-72.322, 172.393-72.322
	c 67.479,0.00, 125.979,24.311, 175.456,72.915c 46.637,46.161, 69.96,103.572, 69.96,172.186C 502.739,293.807, 479.012,351.816, 431.547,399.188z
	 M 400.872,84.841c-40.49-40.026-88.139-60.027-142.926-60.027c-54.82,0.00-102.063,19.808-141.737,59.437
	c-39.674,39.632-59.506,86.597-59.506,140.914c0.00,22.974, 3.629,44.704, 10.803,65.181l 64.949-28.747L 127.768,261.605 l0.00-29.121 l 22.986,0.00 
	c0.00-4.117-0.413-8.216-0.413-12.312l0.00-6.984 L 127.768,213.182 l0.00-29.127 l 26.666,0.00 c 3.698-21.748, 11.909-39.385, 22.974-53.341
	c 22.974-30.368, 59.907-46.773, 100.12-46.773c 26.269,0.00, 50.053,7.788, 64.015,15.595l-9.861,45.538c-8.611-4.518-27.886-10.665-46.764-10.665
	c-20.522,0.00-39.797,6.147-52.938,20.926c-6.153,6.969-10.662,16.417-13.526,28.723l 89.208,0.00 l 126.747-56.106
	C 425.632,112.39, 414.482,98.006, 400.872,84.841z M 241.462,213.176l-0.539,0.413l 0.931-0.413L 241.462,213.176 z M 317.774,232.472l 3.668,0.00 l0.00,29.121 
	L 251.967,261.599 l-28.229,12.493c 2.434,5.466, 5.313,10.345, 8.659,14.167c 12.725,15.616, 30.765,22.173, 50.471,22.173c 18.056,0.00, 34.87-5.325, 45.538-9.845
	l 11.49,46.785c-14.779,6.551-36.521,12.30-61.542,12.30c-38.563,0.00-71.397-15.589-94.783-41.845c-5.195-5.999-9.698-12.725-13.779-19.848
	l-80.607,35.668c 7.81,11.716, 17.001,22.962, 27.63,33.696c 38.46,39.219, 85.483,58.829, 141.113,58.829c 55.615,0.00, 102.861-19.61, 141.719-58.829
	c 39.249-38.807, 58.88-86.182, 58.88-142.17c0.00-18.447-2.099-35.849-6.225-52.239L 317.774,232.472z"  />
<glyph unicode="&#xe009;" d="M 501.585,475.362L 2.593,475.362 l0.00-498.995 l 498.995,0.00 L 501.588,475.362 z M 357.927,351.087c 9.602-9.282, 9.851-24.579, 0.572-34.184
	L 273.498,229.057l 84.986-87.868c 9.282-9.586, 9.035-24.898-0.572-34.187c-9.602-9.282-24.904-9.032-34.187,0.572L 222.491,212.245
	c-4.536,4.689-6.807,10.752-6.807,16.815s 2.271,12.125, 6.807,16.815l 101.25,104.659C 333.023,360.117, 348.323,360.37, 357.927,351.087z
	 M 138.888,118.055L 138.888,332.999 c0.00,13.351, 10.827,24.178, 24.178,24.178s 24.178-10.827, 24.178-24.178l0.00-214.944 c0.00-13.351-10.827-24.178-24.178-24.178
	S 138.888,104.704, 138.888,118.055z"  />
<glyph unicode="&#x20;" horiz-adv-x="256" />
<glyph class="hidden" unicode="&#xf000;" d="M0,480L 512 -32L0 -32 z" horiz-adv-x="0" />
</font>
</defs>
</svg>
