<?xml version="1.0" encoding="utf-8"?>
<!DOCTYPE svg PUBLIC "-//W3C//DTD SVG 1.1//EN" "http://www.w3.org/Graphics/SVG/1.1/DTD/svg11.dtd">
<svg version="1.1" id="greenpeace" xmlns="http://www.w3.org/2000/svg" xmlns:xlink="http://www.w3.org/1999/xlink" x="0px" y="0px"
	 width="425.197px" height="85.039px" viewBox="0 0 425.197 85.039" enable-background="new 0 0 425.197 85.039"
	 xml:space="preserve">
<path fill="#999" d="M139.747,20.67c0.277,1.389,1.25,2.637,0.834,4.305c-1.112,3.471-5,2.22-7.499,3.609c-3.471-0.556-6.385,2.359-10.275,2.083
	c-1.804,0.417-3.61,0.971-4.581,2.64c-0.278,0.832-0.139,2.22,1.11,2.22c2.501-0.694,5.138-0.694,7.498-1.944
	c2.221,0.973,3.61-2.499,5.417-0.139c0.276,0.694,0.832,1.527,1.665,1.527c0.834,2.361,2.5,4.722,1.807,7.5
	c0.832,1.803-1.251,2.498-2.223,3.332c-3.888,1.389-7.636,0-11.246,1.804c-3.056,0.974-6.248-1.943-7.636,1.527
	c0.278,2.363,2.915,2.083,4.719,2.638c2.639,0,4.721-1.389,7.498-1.663c2.824,2.125,4.166,4.439,3.471,7.911
	c0,2.222-1.11,4.859-3.471,5.974c-2.22,0.414-4.303,2.496-6.525,0.969c-3.331-0.414-5.971-2.357-9.303-2.777
	c-2.637-0.969-4.581-3.331-4.72-6.248c-1.528-0.969,0.278-3.331-1.528-4.305c0.418-1.664-1.388-2.912-0.276-4.44
	c0.276-2.083,0.416-3.611,1.249-5.554c0.14-1.807,1.11-3.334,1.25-5.14c0.833-0.694,0.416-2.082,0.278-3.054
	c-1.667-3.194-3.471-7.914-0.278-11.108c-0.14-1.111,1.249-1.805,1.943-2.5c2.777,0.694,4.443-1.249,7.082-0.971
	c2.637-1.111,5.832-1.25,8.469-2.5c3.192-0.138,6.109-1.803,9.441-1.943C137.525,14.282,138.08,18.587,139.747,20.67z"/>
<path fill="#999" d="M267.9,52.465c-3.192-0.694-8.886,2.637-9.72-2.357c1.806-3.057,5.693-0.975,8.747-1.809
	c1.526-1.388,4.303-0.14,6.111-0.969c4.165-0.279,9.025-0.279,10.968-4.585c1.109-3.609-0.14-7.497-2.776-10.134
	c-1.529-0.418-2.223,0.832-3.472,0.832c-2.222,0.833-4.306,1.945-6.802,1.805c-2.223,0.14-4.445,2.083-6.389,0.834
	c-0.974-1.113,0.415-2.083,0.555-3.057c1.668-2.36,4.768-3.24,7.082-3.471c3.703-1.157,12.447-1.249,9.579-0.971
	s3.472-0.556,4.999-1.389c2.498-0.556,5.832-1.944,6.249-4.86c-0.417-3.054-1.389-5.831-2.776-8.331
	c-1.807-3.333-4.721-0.417-7.223-0.832c-1.389,1.249-3.885,0.276-5.274,1.526c-5.554,0.972-10.968,2.36-16.246,3.888
	c-1.944,1.249-3.052,3.611-3.052,6.108c-1.114,0.974-0.557,2.777-2.083,3.611c-0.834,0-1.668-0.278-1.946-1.111
	c0.278-2.638-1.805-4.166-2.219-6.525c-1.809-1.388-2.777-4.443-5.141-4.859c-4.579-1.806-10.413-2.223-15.688-1.806
	c-2.223-0.556-4.858,0.139-6.805,1.251c-3.193-0.557-5.414,0.276-8.328,0.276c-1.809,1.25-3.611,2.5-5.555,3.471
	c-1.251-0.695-1.389-1.944-2.5-2.916c-0.694-1.25-2.499-0.832-3.61-1.666c-0.832,0.834-2.499,0.834-2.639,2.223
	c-1.527,2.083,0.278,5.83-1.527,8.051c-0.416,3.057-0.694,6.666-0.277,9.581c0.139,1.112,0.834,2.776-0.417,3.75
	c-0.694,0.277-1.666,0.14-2.083-0.695c-2.499-4.025-6.942-7.221-6.525-12.356c-1.527-1.668,0.416-2.917-0.139-5
	c-0.834-2.222-1.667-4.999-4.165-5.832c-1.667,0.139-3.055-1.11-4.582,0c-4.165,0.973-2.083,5.554-3.749,8.055
	c-2.361-1.668,0.37-6.202-5.833-6.942c-6.201-0.742-8.701,0.878-11.385,1.109c-2.684,0.231-0.278,0.417-0.278,0.417
	c-3.471-0.277-7.126,1.064-9.164,1.25c-2.036,0.183-5.6,0.832-6.942,3.053c-1.341,2.221-0.694,7.915-3.608,10.691
	c-1.528,3.749-2.501,7.776-2.361,12.082c-1.804,1.943-1.25,5.554-1.11,8.331c0.138,0.969,1.11,1.523,0.97,2.637
	c1.667,2.777,3.333,6.109,6.109,7.777c2.083-0.279,3.888,1.108,5.832,1.663c2.361,1.388,5.138,0.14,7.915,0.554
	c1.389-0.828,1.063,0,4.441-1.662c3.379-1.668,2.917-6.297,2.501-10.139c-1.112-0.97-1.667-2.638-2.501-3.746
	c-1.527-1.249-3.053,0.274-4.441,0.693c-3.055,1.804-5.972,0.835-9.582,1.109c-0.556-0.141-1.666-0.834-1.389-1.803
	c2.083-3.332,7.5-0.42,10.414-2.502c2.361-0.786,3.008-0.509,4.675-0.786c0.833-0.832,1.851-0.603,2.961-0.878
	c1.806-1.388,4.304-1.388,5.417-3.61c0.694-3.889-1.388-7.082-4.028-9.72c-1.526-1.667-3.193,0.416-4.721,0.695
	c-2.637,0.694-5.136,2.083-7.912,2.637c-0.834,0.14-1.251-0.833-1.389-1.527c1.249-6.942,9.163-3.472,13.466-5.83
	c3.611,0.415,6.388-1.389,9.719-0.974c0.973-0.555,1.113-1.803,1.944-2.36l0.557,0.557c-0.14,3.609,0.276,7.357-0.278,10.968
	c-0.416,1.11-0.14,2.36-0.834,3.193c0.556,2.221-1.11,3.47-1.249,5.277c-0.416,5.554-3.611,12.911,1.249,17.356
	c1.806,0.693,3.471,2.223,5.832,1.389c0.556-1.25,2.638-2.502,1.666-4.306c0.973-2.223,0-4.72,0.833-7.082
	c0-2.497,1.667-4.44,1.807-6.942c0.137-0.834,0.97-1.389,1.804-1.389c1.249,0.694,1.943,2.083,1.804,3.472
	c2.083,1.808,3.334,4.585,5.417,6.667c0.137,2.912,0.97,5.969,2.083,8.746c1.388,3.33,5.275,2.916,8.053,2.637
	c1.943-1.389,1.989-3.033,3.239-4.976c-0.417-0.277-0.184-0.993-0.324-1.548c-0.278-2.642,0.093-5.395-0.254-7.593
	c1.389-1.111-0.439-3.654,0.67-4.903l0.278-14.858c0.14-0.973-0.833-1.528-0.417-2.637c1.667-3.057,3.889,0.97,6.249,0.415
	c1.111-0.415,1.527-1.527,2.361-2.36c1.389-0.138,3.471-0.694,4.444,0.417c1.109,1.11,0.136,3.192,0.274,4.72
	c-1.107,0.834-2.357,1.528-3.61,1.944c-2.638,1.25-2.497,4.165-2.638,6.526c-0.275,3.191,2.918,4.72,4.86,6.803
	c0,3.196,0.14,7.081-0.14,10.272c0.975,2.503,0.42,5.834,3.334,7.502c1.251,0.969,2.914,0.415,4.442,0.275
	c3.193-1.664,2.362-5.693,2.083-8.471c0.693-1.109,0.693-2.082,0.554-3.332c-0.97-3.051,0.975-5.828,1.669-8.745
	c1.107-0.833,2.223-1.248,3.61-1.248c0.415-1.254,1.663-0.42,2.22-1.389c4.165-0.694,6.386-4.999,10.691-5.279
	c0.416,0.417,1.111,0.834,0.833,1.668c-2.222,1.527-2.361,3.611-2.083,6.248c-1.248,0.694-0.416,2.083-1.388,2.917
	c-0.694,3.746,1.109,6.523,1.666,9.854c3.749,6.809,11.385,10,19.715,8.891c2.638-2.502,7.497-2.777,8.331-7.082
	c-0.141-3.057,0.416-6.668-2.082-8.885C272.62,49.688,270.399,51.496,267.9,52.465z M241.936,27.334
	c-2.359,1.667-4.027,5.138-7.358,4.443c-1.942-1.528-1.108-4.165-1.389-6.526c0.554-0.694,1.389-1.25,2.362-1.11
	c2.083,0.694,4.166,1.388,6.248,1.943C241.799,26.501,242.214,26.918,241.936,27.334z"/>
<path fill="#999" d="M92.955,45.248c-0.416-0.975,0.556-1.668,1.113-2.223c2.777-2.501,2.498-6.11,4.441-8.887
	c1.113-6.109-0.97-11.664-4.72-16.105c-1.388-2.5-3.887-3.611-6.109-4.722c-4.582-0.695-8.748,0.277-12.356,2.36
	c-2.223,2.222-2.639,5.276-2.917,8.331c1.11,0.694,0.277,2.222,1.666,2.777C73.888,30.481,73.888,34,72.5,35.803
	c-0.278,3.056-3.842,0.694-3.981,3.611c-0.416,1.11,0.139,2.637-0.556,3.611c-2.777-1.943-2.499-5.278-4.304-7.776
	c-1.389-0.554-3.054-0.972-4.582-0.554c-1.667,1.665-4.721,0-6.388,1.389c-5.83,0.276-11.107,1.664-16.243,3.609
	c-2.361,0.556-1.113,2.778-2.639,4.167c0,2.637,1.111,4.995,2.776,6.663c1.251,0.834,3.194,0.834,4.583,0.28
	c3.887,0.274,7.219-2.643,10.829-1.114c0.278,2.223-2.499,2.083-3.331,3.057c-2.499,0.275-3.795,1.154-7.221,1.248
	c-3.424,0.092-4.997,0.28-6.942-0.693c-2.499-0.834-5.554,0-7.358-2.223c-0.973-1.248-0.973-3.331-0.694-4.58
	c0.833-2.083,1.667-4.165,3.193-5.833c3.61-6.803,10.414-13.051,16.8-17.356c5-2.221,4.444,4.305,7.915,5.554
	c1.11,0.139,2.777,0.555,3.611-0.833c2.359-2.359,1.11-6.11,0.555-8.747c-2.5-2.917-5.786-6.711-8.748-6.666
	c-2.961,0.046-3.193,0.557-4.581,1.389c-5,3.054-9.165,5.831-13.33,10.136c-0.003,0.04-2.777,2.545-4.441,4.443
	c-1.667,1.897-3.704,4.535-4.305,5.416c-0.602,0.877-6.248,7.082-6.248,11.941c0.694,1.249,0,3.052,1.11,4.025
	c0.973,4.58,4.584,9.301,9.025,11.107c5.554,1.943,11.108,3.887,17.355,2.498c0.419-0.414,1.113-0.414,1.807-0.414
	c0.694-1.25,2.359-0.28,3.193-1.668c0.554-0.275,1.667-0.416,2.221,0.139c1.804,3.887-0.694,8.191,2.223,11.522
	c0.832,0.14,1.664,0.28,2.358,0.974c1.528-0.279,2.361,0.694,3.611-0.14c1.249-0.694,2.499-1.942,2.637-3.331
	c0-5.834-0.139-12.356,2.083-17.496c0-2.916,1.667-5.273,2.501-7.91c0.694-0.42-0.278-2.083,0.97-2.083
	c5.554,5.554-1.943,14.714,3.89,20.407c1.11,1.389,3.053,2.223,4.997,1.943c1.251,0,1.527-1.389,2.221-2.083
	c-0.138-2.083,1.113-4.58-0.138-6.249c0.417-2.496-0.972-5.134,1.388-6.941c2.083,0,2.5,2.777,4.444,3.196
	c5.414,2.917,7.358,10.273,14.3,9.72c1.111-0.834,2.083-1.668,2.5-2.918c2.223-1.388,2.36-3.885,2.223-6.387
	C101.286,48.993,96.288,48.854,92.955,45.248z M88.79,29.972c-1.11,1.945-2.499,4.304-4.859,4.998
	c-1.388-1.664,0.694-3.609,0.14-5.554c0.278-1.388-0.556-3.887,1.389-4.721c1.804-0.277,2.637,1.806,3.471,2.917
	C89.208,28.584,89.345,29.141,88.79,29.972z"/>
<path fill="#999" d="M409.662,22.474c-0.694-3.333-2.777-7.636-6.665-8.606c-3.471,1.109-7.359,1.109-10.83,2.083
	c-4.166-0.279-7.497,1.803-11.663,1.526c-0.974,1.111-2.499,0.417-3.61,0.833c-3.191,1.113-7.082,0.419-10.134,1.807
	c-4.306,2.497-4.723,6.385-4.859,10.828c-1.945,4.583-4.723,8.61-5.14,13.745c-1.389,0.56,0.417,1.947-0.834,2.642
	c-0.694,0.275-0.831-0.419-1.249-0.694c-2.359-0.279-3.886,1.523-5.693,2.638c-4.303,2.223-9.994,0.969-13.744-1.528
	c-2.083-1.943-6.803-2.917-5.831-6.943c2.914-5.138,6.11-11.802,12.773-12.356c3.471,0.97,0.554,4.997,2.222,7.218
	c1.528,2.777,4.72,3.889,7.914,3.75c2.083-1.388,3.334-3.471,4.442-5.554c0.555-3.331,1.111-6.526-0.694-9.442
	c-0.414-1.944-1.527-3.888-3.191-4.997c-0.834-1.807-3.057-1.945-5-1.807c-7.496,1.113-14.438,3.471-20.687,7.636
	c-4.305,0.694-4.585,5.692-7.082,8.331h-0.554c-2.363-2.083-1.389-5.83-1.945-8.747c-1.252-2.083-1.666-4.583-3.194-6.527
	c-1.666-2.358-3.471-5.415-7.219-4.721c-4.997,1.944-6.111,7.776-9.997,11.248c-2.637,4.442-4.859,9.441-8.331,13.606
	c-1.388,5.692-3.61,10.972-6.802,15.831c0,2.497-1.113,5.968,1.663,7.497c1.528,0.969,3.056,2.497,4.999,1.803
	c3.332-3.332,3.471-7.912,6.528-11.383c2.082-1.388,8.653-1.576,6.803-1.113c-1.852,0.463,4.305-0.506,5.273,0.555
	c0.974,1.064,1.528,5.139,1.113,8.195c0.555,2.357,3.052,4.721,5.415,5.135c3.33,0.974,2.496-3.053,4.305-4.44
	c0.138-1.948,0.832-4.725-0.557-6.248c1.525-1.528-0.418-3.891,1.665-5.14c0.694-0.14,0.974,0.695,1.389,0.975
	c3.331,5.553,9.305,8.465,14.579,11.801c1.11,0.695,2.362,0.695,3.331,1.943c2.917,0.141,5.279,2.223,8.471,1.389
	c5.139,0.14,7.775-4.859,9.998-8.61l1.943-0.14c1.528,3.471,5.137,5,8.19,6.527c3.331,0.694,7.083,0.694,10.554,0.555
	c3.331-1.664,8.607-1.943,9.579-6.248c1.133-5.554,2.338-7.868,0.14-9.835s-8.562,1.157-13.074,1.504s-4.281-1.735-3.471-3.124
	c0.81-1.389,5.091-1.041,12.032-1.272c6.943-0.231,8.331-1.852,8.124-4.488c-0.719-3.727-2.917-6.388-6.248-6.248
	c-2.083,0.971-4.585,0.694-6.805,1.388c-1.389-0.694-3.055,0.694-4.997,0.277c-1.113-0.277-1.251-1.666-1.113-2.777
	c0.974-4.165,5.973-2.083,9.024-3.608c6.942-0.557,12.916-1.807,20.272-1.528c2.083-1.111,4.165,0.554,6.665,0
	C411.05,27.334,408.413,24.141,409.662,22.474z M307.194,36.083c-0.973,0.414-1.807,1.388-3.195,1.108
	c-0.414-0.833-0.971-1.108-0.834-2.221c1.114-2.221,2.363-4.581,4.166-6.109c0.557,0.139,1.251,0.279,1.251,0.974
	C308.999,32.055,307.751,34.138,307.194,36.083z"/>
</svg>
