<?xml version="1.0" encoding="utf-8"?>
<!-- Generator: Adobe Illustrator 15.0.2, SVG Export Plug-In . SVG Version: 6.00 Build 0)  -->
<!DOCTYPE svg PUBLIC "-//W3C//DTD SVG 1.1//EN" "http://www.w3.org/Graphics/SVG/1.1/DTD/svg11.dtd">
<svg version="1.1" id="Calque_1" xmlns="http://www.w3.org/2000/svg" xmlns:xlink="http://www.w3.org/1999/xlink" x="0px" y="0px"
	 width="334.75px" height="176.833px" viewBox="13.083 0 334.75 176.833" enable-background="new 13.083 0 334.75 176.833"
	 xml:space="preserve">
<g id="Calque_2" display="none">
	<rect x="-114" y="-138" display="inline" fill="#39A9DC" width="729.5" height="506"/>
</g>
<g>
	<path fill="#009AC5" d="M163.551,81.277"/>
</g>
<path fill="none" stroke="#C6C7C8" stroke-width="0.278" stroke-linecap="round" stroke-linejoin="round" d="M165.232,68.881
	L165.232,68.881 M163.761,80.752L163.761,80.752"/>
<path fill="#999999" d="M164.61,73.87c0.01,0,0.01,0,0.02,0c0.07,0,0.13-0.05,0.14-0.12c0.01-0.08-0.05-0.15-0.12-0.15
	c-0.08-0.01-0.15,0.04-0.16,0.12C164.48,73.79,164.54,73.86,164.61,73.87z"/>
<path fill="#999999" d="M164.88,71.71c0.01,0,0.01,0,0.02,0c0.07,0,0.13-0.05,0.14-0.12c0-0.08-0.05-0.15-0.13-0.15
	c-0.07-0.01-0.14,0.04-0.15,0.12C164.75,71.63,164.8,71.7,164.88,71.71z"/>
<path fill="#999999" d="M164.81,72.25c0.01,0,0.01,0,0.02,0c0.07,0,0.13-0.05,0.14-0.12c0.01-0.08-0.05-0.15-0.12-0.15
	c-0.08-0.01-0.15,0.04-0.16,0.12C164.68,72.17,164.74,72.24,164.81,72.25z"/>
<path fill="#999999" d="M164.55,74.41h0.01c0.07,0,0.13-0.05,0.14-0.12c0.01-0.08-0.04-0.15-0.12-0.15
	c-0.08-0.01-0.14,0.04-0.16,0.12C164.42,74.33,164.47,74.4,164.55,74.41z"/>
<path fill="#999999" d="M164.68,73.33c0.01,0,0.01,0,0.02,0c0.07,0,0.13-0.05,0.13-0.12c0.01-0.08-0.04-0.15-0.12-0.15
	c-0.07-0.01-0.14,0.04-0.15,0.12C164.55,73.25,164.6,73.32,164.68,73.33z"/>
<path fill="#999999" d="M164.75,72.79h0.01c0.07,0,0.13-0.05,0.14-0.12c0.01-0.08-0.04-0.15-0.12-0.15
	c-0.07-0.01-0.14,0.04-0.15,0.12C164.62,72.71,164.67,72.78,164.75,72.79z"/>
<path fill="#999999" d="M164.48,74.95c0.01,0,0.01,0,0.02,0c0.06,0,0.13-0.05,0.13-0.12c0.01-0.08-0.04-0.15-0.12-0.15
	c-0.07-0.01-0.14,0.04-0.15,0.12C164.35,74.87,164.4,74.94,164.48,74.95z"/>
<path fill="#999999" d="M165.15,69.55h0.01c0.07,0,0.13-0.05,0.14-0.12c0.01-0.08-0.04-0.14-0.12-0.15
	c-0.07-0.01-0.14,0.04-0.15,0.12C165.02,69.47,165.07,69.54,165.15,69.55z"/>
<path fill="#999999" d="M165.01,70.63c0.01,0,0.01,0,0.02,0c0.07,0,0.13-0.05,0.14-0.12c0.01-0.08-0.05-0.15-0.12-0.15
	c-0.08-0.01-0.15,0.04-0.16,0.12C164.88,70.55,164.94,70.62,165.01,70.63z"/>
<path fill="#999999" d="M164.95,71.17h0.01c0.07,0,0.13-0.05,0.14-0.12c0.01-0.08-0.04-0.15-0.12-0.15
	c-0.07-0.01-0.14,0.04-0.15,0.12C164.82,71.09,164.87,71.16,164.95,71.17z"/>
<path fill="#999999" d="M165.08,70.09c0.01,0,0.01,0,0.02,0c0.07,0,0.13-0.05,0.14-0.12c0-0.08-0.05-0.15-0.12-0.15
	c-0.08-0.01-0.15,0.04-0.16,0.12C164.95,70.01,165.01,70.08,165.08,70.09z"/>
<path fill="#999999" d="M164.35,76.03h0.01c0.07,0,0.13-0.05,0.14-0.12c0.01-0.08-0.04-0.15-0.12-0.15
	c-0.08-0.01-0.15,0.04-0.16,0.12C164.21,75.95,164.27,76.02,164.35,76.03z"/>
<path fill="#999999" d="M164.01,78.73c0.01,0,0.01,0,0.02,0c0.07,0,0.13-0.05,0.14-0.12c0.01-0.08-0.05-0.15-0.13-0.16
	c-0.07-0.01-0.14,0.05-0.15,0.13C163.88,78.65,163.93,78.72,164.01,78.73z"/>
<path fill="#999999" d="M163.94,79.27c0.01,0,0.01,0,0.02,0c0.07,0,0.13-0.05,0.14-0.12c0.01-0.08-0.05-0.15-0.12-0.16
	c-0.08-0.01-0.15,0.05-0.16,0.13C163.81,79.19,163.87,79.26,163.94,79.27z"/>
<path fill="#999999" d="M164.08,78.19h0.01c0.07,0,0.14-0.05,0.14-0.12c0.01-0.08-0.04-0.15-0.12-0.15
	c-0.07-0.02-0.14,0.04-0.15,0.12C163.95,78.11,164,78.18,164.08,78.19z"/>
<path fill="#999999" d="M164.41,75.49c0.01,0,0.01,0,0.02,0c0.07,0,0.13-0.05,0.14-0.12c0.01-0.08-0.05-0.15-0.12-0.15
	c-0.08-0.01-0.15,0.04-0.16,0.12C164.28,75.41,164.33,75.48,164.41,75.49z"/>
<path fill="#999999" d="M163.81,80.35c0.01,0,0.01,0,0.02,0c0.07,0,0.13-0.05,0.13-0.12c0.02-0.08-0.04-0.15-0.12-0.16
	c-0.07-0.01-0.14,0.05-0.15,0.12C163.68,80.27,163.73,80.34,163.81,80.35z"/>
<path fill="#999999" d="M163.88,79.81h0.01c0.07,0,0.13-0.05,0.14-0.12c0.01-0.08-0.04-0.15-0.12-0.16
	c-0.08-0.01-0.14,0.05-0.15,0.13C163.75,79.73,163.8,79.8,163.88,79.81z"/>
<path fill="#999999" d="M164.28,76.57h0.01c0.07,0,0.14-0.05,0.14-0.12c0.01-0.08-0.04-0.15-0.12-0.15
	c-0.07-0.01-0.14,0.04-0.15,0.12C164.15,76.49,164.2,76.56,164.28,76.57z"/>
<path fill="#999999" d="M164.14,77.65c0.01,0,0.01,0,0.02,0c0.07,0,0.13-0.05,0.14-0.12c0.01-0.08-0.05-0.15-0.12-0.15
	c-0.08-0.02-0.15,0.04-0.16,0.12C164.01,77.57,164.07,77.64,164.14,77.65z"/>
<path fill="#999999" d="M164.21,77.11c0.01,0,0.01,0,0.02,0c0.07,0,0.13-0.05,0.14-0.12c0.01-0.08-0.05-0.15-0.13-0.16
	c-0.07-0.01-0.14,0.05-0.15,0.13C164.08,77.03,164.13,77.1,164.21,77.11z"/>
<path fill="#999999" d="M343.047,4.299H19.304v13.058h323.743V4.299z M342.62,16.93H19.732V4.727h322.888L342.62,16.93L342.62,16.93
	z"/>
<path fill="#999999" d="M76.795,65.181l8.188-3.23l-0.152-0.4l-8.035,3.172v-2.165H18.808v7.876h57.986L76.795,65.181L76.795,65.181
	z M76.367,64.886l-0.477,0.182c-0.035-0.055-0.057-0.115-0.102-0.164c-0.387-0.415-1.097-0.439-1.512-0.052
	c-0.43,0.402-0.453,1.079-0.052,1.51c0.202,0.216,0.487,0.34,0.782,0.34l0,0c0.271,0,0.529-0.102,0.727-0.287
	c0.21-0.195,0.331-0.459,0.341-0.745c0.002-0.071-0.022-0.135-0.033-0.203l0.325-0.124v4.663h-57.13v-7.021h57.131V64.886z
	 M75.647,65.656c-0.006,0.171-0.079,0.33-0.205,0.447c-0.119,0.11-0.273,0.171-0.435,0.171l0,0c-0.18,0-0.346-0.072-0.469-0.204
	c-0.241-0.258-0.228-0.665,0.03-0.905c0.119-0.111,0.275-0.173,0.438-0.173c0.18,0,0.346,0.073,0.469,0.204
	C75.592,65.322,75.653,65.485,75.647,65.656z"/>
<path fill="#999999" d="M18.808,59.327h57.986V51.45H18.808V59.327z M19.236,51.877h57.131v7.021H19.236V51.877z"/>
<path fill="#999999" d="M76.795,73.667H18.808v7.877h57.986L76.795,73.667L76.795,73.667z M76.367,81.116H19.236v-7.021h57.131
	V81.116z"/>
<path fill="#999999" d="M18.808,92.652h57.986v-7.877H18.808V92.652z M19.236,85.203h57.131v7.021H19.236V85.203z"/>
<path fill="#999999" d="M235.324,115.783h-0.429v2.545h-5.119V170.5h22.482v-52.172h-16.937v-2.545H235.324z M235.109,125.949
	c0.354,0,0.641,0.287,0.641,0.641c0,0.354-0.287,0.643-0.641,0.643s-0.642-0.288-0.642-0.643
	C234.467,126.236,234.755,125.949,235.109,125.949z M251.832,118.755v51.316h-21.627v-51.316h4.69v6.81
	c-0.483,0.103-0.854,0.513-0.854,1.024c0,0.591,0.479,1.07,1.068,1.07s1.068-0.479,1.068-1.07c0-0.512-0.371-0.922-0.854-1.024
	v-6.81H251.832z"/>
<path fill="#999999" d="M252.259,30.714h-22.482v52.172h5.119v17.872h0.428V82.886h16.937L252.259,30.714L252.259,30.714z
	 M235.109,74.838c-0.354,0-0.642-0.289-0.642-0.643c0-0.353,0.288-0.64,0.642-0.64s0.641,0.287,0.641,0.64
	C235.75,74.549,235.462,74.838,235.109,74.838z M251.832,82.458h-16.508v-7.236c0.482-0.102,0.854-0.513,0.854-1.027
	c0-0.589-0.479-1.067-1.068-1.067s-1.068,0.479-1.068,1.067c0,0.515,0.371,0.925,0.854,1.027v7.236h-4.69V31.142h21.627V82.458
	L251.832,82.458z"/>
<path fill="#999999" d="M191.19,89.21c0.03,0,0.05,0,0.08-0.02c0.06-0.04,0.08-0.12,0.04-0.19c-0.04-0.06-0.12-0.08-0.189-0.05
	c-0.061,0.05-0.08,0.13-0.041,0.2C191.1,89.19,191.15,89.21,191.19,89.21z"/>
<path fill="#999999" d="M190.259,89.78c0.021,0,0.051-0.01,0.07-0.02c0.061-0.04,0.08-0.12,0.051-0.19
	c-0.051-0.07-0.131-0.09-0.2-0.05c-0.06,0.04-0.08,0.13-0.04,0.19C190.16,89.76,190.21,89.78,190.259,89.78z"/>
<path fill="#999999" d="M190.73,89.5c0.02,0,0.05-0.01,0.07-0.02c0.06-0.04,0.08-0.13,0.039-0.19c-0.029-0.07-0.119-0.09-0.189-0.05
	c-0.061,0.04-0.08,0.12-0.04,0.19C190.63,89.47,190.68,89.5,190.73,89.5z"/>
<path fill="#999999" d="M188.85,90.63c0.021,0,0.05,0,0.069-0.02c0.061-0.04,0.09-0.12,0.041-0.19c-0.03-0.06-0.121-0.09-0.19-0.04
	c-0.06,0.03-0.08,0.12-0.04,0.19C188.75,90.61,188.8,90.63,188.85,90.63z"/>
<path fill="#999999" d="M189.32,90.35c0.02,0,0.051-0.01,0.07-0.02c0.061-0.04,0.08-0.13,0.05-0.19c-0.05-0.07-0.13-0.09-0.2-0.05
	c-0.06,0.04-0.08,0.13-0.039,0.19C189.22,90.32,189.27,90.35,189.32,90.35z"/>
<path fill="#999999" d="M189.791,90.07c0.02,0,0.039-0.01,0.069-0.02c0.06-0.05,0.08-0.13,0.04-0.2
	c-0.029-0.06-0.12-0.08-0.189-0.04c-0.061,0.04-0.08,0.12-0.041,0.19C189.69,90.04,189.74,90.07,189.791,90.07z"/>
<path fill="#999999" d="M193.08,88.08c0.021,0,0.041-0.01,0.07-0.02c0.061-0.04,0.08-0.13,0.04-0.19c-0.04-0.07-0.12-0.09-0.19-0.05
	c-0.06,0.04-0.08,0.12-0.039,0.19C192.98,88.05,193.03,88.08,193.08,88.08z"/>
<path fill="#999999" d="M191.669,88.93c0.021,0,0.041-0.01,0.07-0.02c0.061-0.04,0.08-0.13,0.04-0.19
	c-0.04-0.07-0.12-0.09-0.19-0.05c-0.06,0.04-0.08,0.13-0.039,0.19C191.57,88.9,191.621,88.93,191.669,88.93z"/>
<path fill="#999999" d="M192.6,88.36c0.03,0,0.05-0.01,0.08-0.02c0.06-0.04,0.079-0.12,0.04-0.19c-0.04-0.06-0.12-0.09-0.19-0.05
	c-0.06,0.04-0.079,0.13-0.04,0.19C192.509,88.34,192.56,88.36,192.6,88.36z"/>
<path fill="#999999" d="M192.14,88.64c0.02,0,0.04,0,0.07-0.02c0.06-0.03,0.08-0.12,0.039-0.19c-0.039-0.06-0.119-0.08-0.189-0.04
	c-0.061,0.04-0.08,0.12-0.04,0.19C192.041,88.62,192.089,88.64,192.14,88.64z"/>
<path fill="#999999" d="M193.541,87.79c0.029,0,0.049,0,0.08-0.02c0.06-0.04,0.08-0.12,0.039-0.19
	c-0.039-0.06-0.119-0.08-0.189-0.05c-0.061,0.05-0.08,0.13-0.04,0.2C193.451,87.77,193.5,87.79,193.541,87.79z"/>
<path fill="#999999" d="M185.56,92.621c0.02,0,0.05-0.011,0.07-0.021c0.07-0.04,0.09-0.12,0.05-0.19s-0.13-0.09-0.2-0.05
	c-0.061,0.04-0.08,0.13-0.04,0.19C185.46,92.6,185.509,92.621,185.56,92.621z"/>
<path fill="#999999" d="M188.38,90.919c0.02,0,0.05-0.01,0.07-0.02c0.059-0.04,0.079-0.13,0.049-0.19
	c-0.049-0.07-0.129-0.09-0.199-0.05c-0.061,0.04-0.08,0.12-0.04,0.19C188.28,90.89,188.33,90.919,188.38,90.919z"/>
<path fill="#999999" d="M186.03,92.339c0.021,0,0.05-0.01,0.07-0.02c0.06-0.04,0.09-0.13,0.05-0.199
	c-0.04-0.061-0.13-0.08-0.189-0.041c-0.07,0.041-0.09,0.121-0.051,0.19C185.93,92.31,185.98,92.339,186.03,92.339z"/>
<path fill="#999999" d="M184.621,93.19c0.02,0,0.049-0.01,0.069-0.021c0.069-0.039,0.09-0.129,0.05-0.189
	c-0.039-0.07-0.13-0.09-0.199-0.05c-0.061,0.04-0.08,0.12-0.041,0.19C184.52,93.16,184.57,93.19,184.621,93.19z"/>
<path fill="#999999" d="M184.15,93.47c0.02,0,0.051,0,0.07-0.02c0.06-0.041,0.09-0.121,0.05-0.191
	c-0.04-0.059-0.13-0.079-0.19-0.049c-0.07,0.039-0.09,0.129-0.05,0.189C184.06,93.451,184.1,93.47,184.15,93.47z"/>
<path fill="#999999" d="M185.089,92.9c0.021,0,0.051,0,0.07-0.02c0.061-0.041,0.08-0.121,0.051-0.19
	c-0.041-0.06-0.131-0.08-0.19-0.04c-0.069,0.04-0.09,0.12-0.05,0.189C184.99,92.88,185.041,92.9,185.089,92.9z"/>
<path fill="#999999" d="M187.91,91.201c0.021,0,0.051-0.011,0.07-0.021c0.061-0.04,0.09-0.12,0.04-0.19
	c-0.03-0.07-0.12-0.09-0.19-0.05c-0.06,0.04-0.08,0.13-0.039,0.19C187.81,91.18,187.86,91.201,187.91,91.201z"/>
<path fill="#999999" d="M186.5,92.05c0.021,0,0.051,0,0.07-0.021c0.061-0.04,0.09-0.12,0.051-0.19
	c-0.041-0.06-0.131-0.09-0.201-0.049c-0.06,0.039-0.08,0.129-0.039,0.199C186.4,92.03,186.451,92.05,186.5,92.05z"/>
<path fill="#999999" d="M187.44,91.48c0.021,0,0.05,0,0.069-0.01c0.061-0.051,0.08-0.131,0.051-0.2c-0.04-0.06-0.13-0.08-0.2-0.04
	c-0.06,0.04-0.08,0.12-0.04,0.189C187.339,91.46,187.39,91.48,187.44,91.48z"/>
<path fill="#999999" d="M186.97,91.77c0.02,0,0.05-0.011,0.07-0.021c0.06-0.039,0.09-0.129,0.049-0.189
	c-0.049-0.07-0.129-0.09-0.189-0.051c-0.07,0.041-0.09,0.131-0.05,0.191C186.871,91.74,186.919,91.77,186.97,91.77z"/>
<path fill="#999999" d="M212.078,125.242c1.709-5.141,2.674-10.613,2.771-16.298h17.823v-1.71h-32.662
	c-0.182-7.779-2.578-15.018-6.608-21.092l-0.489-0.717c-7.224-10.394-19.242-17.216-32.83-17.216
	c-21.719,0-39.429,17.423-39.929,39.024H16.365c-0.472,0-0.855,0.384-0.855,0.854c0,0.473,0.383,0.855,0.855,0.855h88.961
	c0.496,29.782,24.861,53.86,54.758,53.86c23.949,0,44.341-15.453,51.771-36.906L212.078,125.242z M192.494,85.695
	c4.271,6.143,6.84,13.551,7.027,21.538h-11.439c-0.494-15.021-12.859-27.089-27.999-27.089c-15.138,0-27.502,12.068-27.998,27.089
	H120.65c0.5-21.325,17.99-38.524,39.433-38.524c13.086,0,24.7,6.411,31.881,16.25L192.494,85.695z M124.521,108.943h73.425
	c-0.493,20.467-17.278,36.967-37.861,36.967c-20.583,0-37.367-16.5-37.861-36.967h10.367v-1.71h-0.006
	c0.496-14.745,12.636-26.589,27.499-26.589s27.003,11.846,27.5,26.589h-63.062 M211.171,126.341
	c-7.533,20.941-27.586,35.961-51.087,35.961c-29.622,0-53.764-23.855-54.261-53.36h15.896c0.494,20.742,17.507,37.468,38.365,37.468
	s37.873-16.727,38.367-37.468h15.896c-0.1,5.853-1.133,11.478-2.95,16.742L211.171,126.341z"/>
<path fill="#999999" d="M344.631,107.233H227.833v1.71h116.798c0.473,0,0.854-0.383,0.854-0.855
	C345.486,107.617,345.104,107.233,344.631,107.233z"/>
<polygon fill="#999999" points="295.279,32.573 295.279,30.714 254.985,30.714 254.985,41.378 267.789,41.378 268.901,41.378 
	295.279,41.378 295.279,39.683 294.851,39.683 294.851,40.95 268.901,40.95 267.789,40.95 255.414,40.95 255.414,31.142 
	294.851,31.142 294.851,32.573 "/>
<polygon fill="#999999" points="295.279,46.261 295.279,44.401 254.985,44.401 254.985,55.065 267.789,55.065 268.901,55.065 
	295.279,55.065 295.279,53.37 294.851,53.37 294.851,54.638 268.901,54.638 267.789,54.638 255.414,54.638 255.414,44.83 
	294.851,44.83 294.851,46.261 "/>
<text transform="matrix(1 0 0 1 18.25 35.3687)"><tspan x="0" y="0" fill="#999999" font-family="'NeutraText-BoldAlt'" font-size="7">SCÉNARIO </tspan><tspan x="0" y="8" fill="#999999" font-family="'NeutraText-BoldAlt'" font-size="7">projet E</tspan></text>
<g>
	<text transform="matrix(1 0 0 1 127.5493 12.418)" fill="#999999" font-family="'NeutraText-BoldAlt'" font-size="5">projection temporelle</text>
</g>
<text transform="matrix(1 0 0 1 18.25 126.3267)"><tspan x="0" y="0" fill="#999999" font-family="'NeutraText-BoldAlt'" font-size="7">SCÉNARIO</tspan><tspan x="0" y="8" fill="#999999" font-family="'NeutraText-BoldAlt'" font-size="7">CONVENTIONNEL</tspan></text>
<text transform="matrix(1 0 0 1 258.3306 37.793)" fill="#999999" font-family="'NeutraText-BoldAlt'" font-size="5">PRODUCTION TOTALE</text>
<text transform="matrix(1 0 0 1 258.3306 51.2974)" fill="#999999" font-family="'NeutraText-BoldAlt'" font-size="5">INVESTISSEMENTs NÉCESSAIREs</text>
<polygon fill="#999999" points="295.279,120.824 295.279,118.964 254.985,118.964 254.985,129.628 267.789,129.628 268.901,129.628 
	295.279,129.628 295.279,127.933 294.851,127.933 294.851,129.201 268.901,129.201 267.789,129.201 255.414,129.201 
	255.414,119.392 294.851,119.392 294.851,120.824 "/>
<polygon fill="#999999" points="295.279,134.511 295.279,132.652 254.985,132.652 254.985,143.316 267.789,143.316 268.901,143.316 
	295.279,143.316 295.279,141.621 294.851,141.621 294.851,142.888 268.901,142.888 267.789,142.888 255.414,142.888 255.414,133.08 
	294.851,133.08 294.851,134.511 "/>
<text transform="matrix(1 0 0 1 258.3306 126.0425)" fill="#999999" font-family="'NeutraText-BoldAlt'" font-size="5">PRODUCTION TOTALE</text>
<text transform="matrix(1 0 0 1 258.3306 139.5474)" fill="#999999" font-family="'NeutraText-BoldAlt'" font-size="5">INVESTISSEMENTs NÉCESSAIREs</text>
<g>
	<text transform="matrix(1 0 0 1 243.7476 94.0347)"><tspan x="0" y="0" fill="#999999" font-family="'NeutraText-BoldAlt'" font-size="7">déployez  </tspan><tspan x="0" y="8" fill="#999999" font-family="'NeutraText-BoldAlt'" font-size="7">les chiffres</tspan></text>
</g>
<g>
	<text transform="matrix(1 0 0 1 137.2144 35.4673)"><tspan x="0" y="0" fill="#999999" font-family="'NeutraText-BoldAlt'" font-size="7">répartition </tspan><tspan x="2.191" y="8" fill="#999999" font-family="'NeutraText-BoldAlt'" font-size="7">du volume </tspan><tspan x="-4.984" y="16" fill="#999999" font-family="'NeutraText-BoldAlt'" font-size="7">de production</tspan></text>
</g>
<text transform="matrix(1 0 0 1 86.0654 59.6514)"><tspan x="0" y="0" fill="#999999" font-family="'NeutraText-BoldAlt'" font-size="5">explorez </tspan><tspan x="0" y="6" fill="#999999" font-family="'NeutraText-BoldAlt'" font-size="5">les éléments </tspan><tspan x="0" y="12" fill="#999999" font-family="'NeutraText-BoldAlt'" font-size="5">clés</tspan></text>
<circle fill="#FFFFFF" cx="235.123" cy="107.625" r="4.958"/>
<g>
	<path fill="#999999" d="M235.164,102.425c-2.891,0-5.242,2.352-5.242,5.242s2.352,5.242,5.242,5.242s5.242-2.352,5.242-5.242
		S238.054,102.425,235.164,102.425z M235.164,112.293c-2.551,0-4.626-2.075-4.626-4.626c0-2.552,2.075-4.626,4.626-4.626
		s4.626,2.074,4.626,4.626C239.79,110.218,237.714,112.293,235.164,112.293z"/>
	<polygon fill="#999999" points="235.9,105.366 234.427,105.366 234.427,106.949 232.892,106.949 232.892,108.386 234.427,108.386 
		234.427,109.969 235.9,109.969 235.9,108.386 237.435,108.386 237.435,106.949 235.9,106.949 	"/>
</g>
</svg>
